<?xml version="1.0" encoding="utf-8"?>
<!-- Generator: Adobe Illustrator 24.2.1, SVG Export Plug-In . SVG Version: 6.00 Build 0)  -->
<svg version="1.1" id="Layer_1" xmlns="http://www.w3.org/2000/svg" xmlns:xlink="http://www.w3.org/1999/xlink" x="0px" y="0px"
	 viewBox="0 0 3000 1200" style="enable-background:new 0 0 3000 1200;" xml:space="preserve">
<style type="text/css">
	.st0{fill:#141414;}
</style>
<path class="st0" d="M368,632.5h136.2c55.2,0,100.9-44.8,100.9-100.9V119.3c0-55.2-45.7-100.9-100.9-100.9H368
	c-56.2,0-100.9,45.7-100.9,100.9v412.3C267.1,587.7,311.9,632.5,368,632.5z M385.2,136.4h100.9v378H385.2V136.4z M93.2,632.4
	l118,0.1l-0.1-613.4L93.2,19.3L25.5,138.1h67.7L93.2,632.4z M2968.8,514.4h-199.6V18.3h-118.1v614.1h317.6L2968.8,514.4
	L2968.8,514.4z M2009.4,469.8h32.4l65.5,162.7l127.6,0l-68.6-170.2c36.2-14.2,62.8-50.5,62.8-93.1V119.9
	c0-55.1-45.6-100.8-100.8-100.8h-236.9v613.3l118.1,0L2009.4,469.8z M2009.5,136.9h100.8l0.1,215.1l-101-0.1L2009.5,136.9z
	 M2775.7,1045.1h110.9c45,0,82.2-36.5,82.2-82.2V765.3c0-45-37.2-82.2-82.2-82.2h-110.9c-45.8,0-82.2,37.2-82.2,82.2v197.5
	C2693.5,1008.6,2730,1045.1,2775.7,1045.1z M2789.7,779.3h82.2v169.6h-82.2V779.3z M337.9,931.3c19.4-10,33.3-30.1,33.3-54.2
	l0-133.2c-0.1-34.1-27.9-62-62-62H96.2v0.2H64.7V778l31.5,0l-0.1,307.7H64.7v95.9H103v-0.1l206.1-0.1c34.1,0,61.9-28,62.1-61.2
	l-0.1-133.9C371.2,962.3,357.3,942.2,337.9,931.3z M274.4,777.9V884l-82,0.1L192.3,778L274.4,777.9z M192.2,1085.5l0-106.2l82.1,0.1
	l0,106.2H192.2z M2699.8,1085.8v95.9h228.1l46.6-95.9H2699.8z M1221.8,466.8h100.9v165.6h118V203.2h0.1V18.4h-99.6v0.1h-162.3
	c-41.9,0-76.1,34.3-76.1,76.2v537.8h119V466.8z M1221.8,136.5h100.9v214.2h-100.9V136.5z M1500,1181.7h96.2V681.4H1500V1181.7z
	 M1650.3,469.8l65.5,162.7l127.6,0l-68.6-170.2c36.2-14.2,62.8-50.5,62.8-93.1V119.9c0-55.1-45.6-100.8-100.8-100.8H1500v613.3
	l118.1,0l-0.2-162.6L1650.3,469.8L1650.3,469.8z M1617.9,136.9h100.8l0.1,215.1l-101-0.1L1617.9,136.9z M1332.5,931.9l-10.1,102.4
	l-8.5-102.4l-30.2-250.5h-95.4L1158,931.9l-10.1,102.4l-7.8-102.4l-22.5-250.5h-99.3l68.2,500.2h113.2l25.6-210.2
	c6.2-45,8.5-106.2,10.9-106.2c3.1,38,3.9,69.8,9.3,106.2l25.6,210.2h113.2l69-500.2H1355L1332.5,931.9z M845.9,1085.5V980h158
	l-13.1-96.2H845.9V777.6h130.3l-13.1-96.2H749.7v500.2h281.6l-13.1-96.2H845.9z M1847.9,681.5l-0.1,270.7l-85.9-270.7l-114,0.1
	l-0.1,500.1l96.2-0.1l0-272.4l86.9,272.4h114l-0.1-500.1L1847.9,681.5z M2635.5,844.7l-0.1-99.7c0-34.1-27.9-61.8-61.9-61.8H2422
	c-33.3-0.1-61.1,27.7-61,61.7v375.7c-0.1,33.2,27.8,61.1,61,61.1l151.5-0.1c34.1,0.1,61.9-27.7,62-61l0-100.4l-96.7-0.1l0.1,65.6
	l-82.1,0.1l0.1-306.8l82-0.3v65.8L2635.5,844.7z M1049.4,557.2l-0.1-164.4c0.1-29.6-17-54.3-40.9-67.7c23.8-12.3,40.9-37,40.9-66.5
	l0-163.5c-0.1-41.8-34.2-76.1-76.2-76.1H711.8v0.3H673v117.7l38.7,0.1l-0.1,377.8H673v117.7h47.1v-0.1l253.1-0.1
	C1015.1,632.2,1049.2,597.9,1049.4,557.2z M930.4,136.7V267l-100.7,0.1l-0.1-130.3L930.4,136.7z M829.7,514.4l0-130.4l100.8,0.1
	l0,130.3L829.7,514.4L829.7,514.4z M691.3,966.8V763.6c0-45-37.2-82.2-82.2-82.2H415.9v500.2h96.2v-132.6h26.4l53.5,132.6h103.9
	l-55.8-138.8C669.5,1031.2,691.3,1001.7,691.3,966.8z M594.3,952.9h-82.2V777.6h82.2V952.9z M2601.6,514.4l-196.2,0.1l-0.2-129.4
	l137.4,0.1l-0.1-118.1l-137.3,0.2l0.2-130.4l196.3,0.1l-0.2-118h-314.2l0.1,613.4l314.1-0.1L2601.6,514.4z M2267.1,844.4l0.1-99.5
	c0-34.2-27.8-61.8-61.9-61.8l-151.6-0.1c-33.3,0-61.1,27.8-61.1,61.9l0.1,375.8c0.1,33.1,27.8,61,61,61l151.6,0.1
	c34-0.1,61.8-27.8,61.8-61V884.8l-115.6,0.1l-39.9,95.7l58.9,0.2l0.1,105.1h-82l-0.1-306.9l82,0l-0.1,65.6L2267.1,844.4
	L2267.1,844.4z"/>
</svg>
