<?xml version="1.0" encoding="UTF-8"?>
<svg xmlns="http://www.w3.org/2000/svg" width="177" height="105" viewBox="0 0 177 105" fill="none">
  <path d="M73.9583 28.8306C74.2372 28.8093 74.2587 28.5538 74.2801 28.4474C74.4196 27.7022 74.4947 27.4148 74.4947 27.1912C74.4947 27.1167 74.4947 27.0422 74.4732 26.9677C74.3016 26.7441 73.8617 26.3928 73.5184 26.3928C73.2717 26.3928 72.8211 26.446 72.3062 26.659C72.2096 26.7015 71.9629 26.6802 71.9629 28.5006C71.9629 28.8413 71.9522 28.9584 72.0809 29.0968C72.1346 29.1181 72.1989 29.1287 72.2525 29.1287C72.5958 29.1287 73.4434 28.8732 73.9583 28.8306Z" fill="#141414"></path>
  <path d="M93.1718 13.2669C94.5449 13.2669 95.6499 12.1598 95.6499 10.8079C95.6499 9.45589 94.5342 8.33813 93.1718 8.33813C91.8093 8.33813 90.6936 9.44525 90.6936 10.8079C90.6936 12.1705 91.8093 13.2669 93.1718 13.2669Z" fill="#141414"></path>
  <path d="M78.8286 18.8665C78.8286 17.6317 79.0002 16.7694 79.129 16.2265C79.3221 15.3961 79.365 15.1832 78.4961 15.9497C77.3267 16.9716 76.8333 17.6423 76.8333 19.8672C76.8333 22.273 77.037 23.5399 79.5259 25.5625C79.9443 25.9031 80.1696 25.9138 79.9873 25.307C79.7191 24.4234 78.8394 21.9324 78.8394 18.8772" fill="#141414"></path>
  <path d="M71.0187 75.6919C70.9436 75.6919 70.5789 75.7345 70.2141 75.7984C69.7314 75.8835 69.8708 76.0538 69.6777 77.5123C69.6777 77.5548 69.6777 77.5868 69.6777 77.6294C69.6777 77.8849 69.8172 78.0658 70.021 78.2149C70.654 78.6939 70.8471 78.9281 71.0402 78.9281C71.2548 78.9281 72.3919 77.9168 72.4884 77.821C72.5635 77.7465 72.5958 77.6719 72.5958 77.5868C72.5958 77.2674 71.6839 76.0964 71.4157 75.8409C71.3084 75.7345 71.1797 75.6919 71.0295 75.6919" fill="#141414"></path>
  <path d="M91.9273 100.176C97.6238 100.176 101.936 98.1109 101.936 97.6319C101.936 97.4935 101.829 97.387 101.679 97.387C100.306 97.387 99.6728 98.0258 94.8774 98.0258C88.1832 98.0258 82.4008 95.6093 82.079 95.1409C80.8667 93.3418 80.5449 92.6179 79.6223 92.6179C79.0966 92.6179 78.5924 92.8947 78.4637 92.8947C78.1847 92.8947 78.2599 92.8627 76.2216 91.4469C76.1036 91.3724 75.5135 90.9146 75.5135 90.6804C75.5135 90.3717 75.9426 90.4037 75.9426 89.9566C75.9426 89.9459 75.9426 89.6478 75.9426 89.2752C75.9426 88.9027 75.9426 88.6684 75.9426 88.6472C75.9426 88.1255 75.181 87.8062 74.1403 87.3271C74.0867 87.3058 74.033 87.2845 73.9794 87.2845C73.6254 87.2845 73.2607 88.051 72.9388 88.051C72.9281 88.051 72.9173 88.051 72.9066 88.051C72.4989 87.8594 70.2139 84.9319 70.2139 84.7084C70.2139 84.5593 70.3856 84.4742 70.804 84.3251C71.1365 84.208 71.158 83.8461 71.158 82.9412C71.158 82.196 71.1901 81.9406 70.5679 81.7489C69.0553 81.2486 69.1304 81.2699 69.0338 81.2699C68.7656 81.2699 68.7442 81.5893 68.6691 81.7489C68.6476 81.8022 68.594 81.8554 68.5618 81.8873C68.4224 81.8873 68.3795 81.8022 68.3258 81.7276C67.7787 80.9186 67.2638 80.1841 66.8346 79.2047C66.9205 78.6831 67.8431 78.9279 67.9182 78.1934C68.0791 76.7137 68.0683 76.7562 68.0683 76.7137C68.0683 76.5008 67.9718 76.3411 67.8001 76.2133C66.6629 75.3298 66.4806 75.1062 66.0193 74.9891C65.2254 75.4788 65.204 75.7343 64.9894 75.7343C64.8821 75.7343 64.807 75.6278 64.7319 75.4256C64.3779 74.5101 64.2063 74.1055 64.1204 73.8713C62.4683 74.0417 60.8377 74.2226 59.2178 74.4249C65.2683 89.1688 77.6162 100.155 91.8843 100.155" fill="#141414"></path>
  <path d="M73.9367 84.836C74.0011 84.8679 74.0654 84.8892 74.1405 84.8892C74.1834 84.8892 74.2371 84.8892 74.2907 84.8679C74.5053 84.655 75.0095 83.6011 75.0095 83.3456C75.0095 83.2179 74.9665 83.0902 74.9022 82.9624C74.398 82.0788 74.3336 81.6211 73.9796 81.6211C73.7972 81.6211 73.5612 81.7276 73.1965 81.7914C72.7888 81.8659 72.7995 82.0895 72.6064 83.7182C72.6064 83.7395 72.6064 83.7715 72.6064 83.7928C72.6064 84.1334 72.7781 84.1653 73.9582 84.8254" fill="#141414"></path>
  <path d="M129.421 76.1705C129.346 76.1705 123.811 79.2151 115.936 79.2151C105.906 79.2151 99.7907 75.4467 99.3723 75.4467C99.3187 75.4467 99.2651 75.4573 99.2222 75.4999C99.2007 75.5318 99.19 75.5744 99.19 75.6063C99.19 75.7128 103.116 80.7374 103.116 85.2617C103.116 86.7095 102.612 91.4361 96.036 91.4361C95.5854 91.4361 94.2981 91.3935 94.2981 91.0315C94.2981 90.957 96.626 86.7627 96.626 83.633C96.626 83.3775 96.4865 83.2604 96.2398 83.2604C95.9394 83.2604 95.7892 83.3775 94.223 83.3775C88.3119 83.3775 81.1671 78.8532 80.5341 74.8825C80.3947 74.0308 80.3089 73.3602 80.2552 72.8279C79.2575 72.8598 78.2491 72.9024 77.2514 72.945C78.4744 93.5651 94.459 94.2571 95.5962 94.2571C99.7693 94.2571 102.698 92.3196 103.975 92.3196C105.015 92.3196 106.624 93.1393 106.624 94.5552C106.624 99.7714 95.8966 101.89 91.5196 101.89C91.3586 101.89 91.2084 101.89 91.0582 101.89H90.8437C77.82 101.89 63.5626 91.9683 56.8898 74.7441C55.6883 74.9037 54.5082 75.0847 53.3389 75.2657C53.9504 76.5431 54.5082 77.8845 54.5082 78.0761C54.5082 78.4487 54.2507 79.3855 54.2507 81.9084C54.2507 90.2544 57.555 98.6537 61.3527 103.359C62.6186 104.924 62.522 104.509 64.0883 103.71C66.7381 102.369 72.1771 99.6756 73.2284 99.6756C73.6146 99.6756 81.3602 104.53 90.8115 104.53C118.232 104.53 129.539 78.6935 129.539 76.3302C129.539 76.2876 129.529 76.2451 129.518 76.1705C129.475 76.1705 129.443 76.1705 129.411 76.1705M90.7471 90.1586C90.672 90.1586 90.5969 90.1373 90.5004 90.0841C88.5479 89.0089 84.1494 87.2524 82.2291 82.4833C81.9824 81.8765 82.0039 81.8126 82.5296 82.2065C89.5134 87.4228 92.3348 86.3476 92.3348 87.1247C92.3348 87.2524 91.3586 90.1586 90.7471 90.1586ZM69.463 97.1314C69.3879 97.3017 69.184 97.2804 68.1863 97.6743C68.1005 97.7062 68.0254 97.7275 67.9503 97.7275C67.371 97.7275 64.0239 94.0974 63.2515 93.5119C63.1656 93.5226 63.1442 93.5651 63.1442 93.6184C63.1442 94.3955 66.0944 98.3449 66.0944 98.5153C66.0944 98.6004 66.148 98.7282 64.571 99.3988C64.5067 99.4201 64.4423 99.4414 64.3886 99.4414C63.1764 99.4414 57.5657 88.4766 57.5657 84.1227C57.5657 83.9417 57.5871 83.7607 57.6729 83.5691C57.9089 83.6543 62.758 91.5319 67.6606 95.4707C69.184 96.6949 69.4951 96.8972 69.4951 97.0781C69.4951 97.0994 69.4951 97.1207 69.4844 97.1526M122.641 82.2704C118.404 90.0628 110.068 96.7055 108.749 96.7907C108.716 96.7588 108.673 96.7162 108.609 96.663C108.856 95.9816 109.113 95.46 109.113 94.5765C109.113 90.1586 104.833 90.297 104.833 89.8925C104.833 89.4028 106.249 88.7641 106.249 84.8253C106.249 83.4201 105.992 82.2278 105.992 81.9723C105.992 81.8126 106.099 81.7062 106.249 81.7062C106.421 81.7062 106.957 81.8552 108.781 82.2491C109.306 82.3662 109.8 82.2916 109.8 82.6749C109.8 83.6756 109.274 86.6989 109.049 87.9124C108.834 89.0728 109.242 88.8812 109.693 88.0934C111.28 85.3256 111.538 83.7288 111.645 83.3456C111.752 82.941 111.849 82.7494 112.149 82.7494C113.426 82.7494 112.718 82.8346 115.325 82.8452C115.743 82.8452 115.69 83.1007 115.539 83.4627C115.046 84.6762 113.126 88.2637 112.471 89.5305C112.085 90.2864 112.31 90.446 112.975 89.9031C113.759 89.2644 115.486 87.4653 117.91 82.9197C118.007 82.7494 118.136 82.643 118.339 82.611C120.077 82.3768 121.547 81.9297 122.266 81.7487C123.081 81.5465 122.899 81.7807 122.631 82.2597" fill="#141414"></path>
  <path d="M96.1011 28.7241C97.1846 28.2983 98.2145 27.7022 99.2229 27.106C101.122 25.967 102.903 24.6363 104.619 23.2417C104.855 23.0501 105.091 22.8585 105.316 22.6562C106.915 21.3043 111.324 18.3023 111.324 13.9164C111.324 11.7021 109.661 11.6382 109.339 11.6382C107.837 11.6382 101.637 15.1193 101.122 15.1193C101.09 15.1193 101.057 15.1193 101.014 15.0874C100.993 15.0448 100.982 15.0022 100.982 14.9703C100.982 14.8638 102.162 12.5005 102.506 12.0215C102.774 11.6595 103.117 11.3721 103.546 11.2018C104.126 10.9676 108.46 8.83849 108.46 8.83849C109.833 7.9017 110.004 7.43331 110.004 6.25167C110.004 1.92963 99.7808 0.769287 95.5861 0.769287C76.115 0.769287 60.3878 15.4599 54.0905 30.6722C54.0047 30.8213 53.9403 31.0022 53.876 31.1939C55.1848 31.0129 56.4936 30.8426 57.7917 30.6829C65.3549 14.2464 80.8567 3.77128 95.8329 3.77128C98.4719 3.77128 106.775 4.05872 106.775 6.6562C106.775 6.87975 106.668 7.09265 106.368 7.19911C100.049 9.43464 101.487 7.69944 96.5517 17.5464C96.1655 18.3236 93.8375 20.6975 93.5693 20.6975C93.0651 20.6975 93.1295 18.2384 93.1295 17.9936C93.1295 17.4932 93.0221 17.3442 92.4106 17.9616C92.1317 18.2384 91.8421 18.5897 91.6275 18.8026C91.1877 19.2284 91.1984 19.7713 91.1984 20.2078C91.1984 21.0807 91.3486 21.6662 91.5417 22.4007C91.7884 23.3163 92.3034 23.774 93.1724 23.774C94.9317 23.774 98.3003 19.6649 99.1049 18.6323C99.3301 18.3449 107.44 14.8745 107.44 14.8745C107.773 14.8745 107.827 15.2258 107.848 15.2896C107.483 18.5897 95.9616 25.8179 93.58 25.8179C91.6275 25.8179 84.0322 23.3588 84.0429 18.9836C84.0429 18.0574 84.0751 16.9184 84.2682 15.7793C84.472 14.619 84.2682 14.8212 83.528 15.5025C81.7686 17.11 81.7042 18.1852 81.7042 19.4094C81.7042 21.794 81.9295 23.7314 86.049 26.2331C87.1111 26.8718 88.2268 27.4147 89.3532 27.947C90.6406 28.5538 91.9279 29.3522 93.4083 29.299C94.3417 29.267 95.2321 29.0435 96.0903 28.7028" fill="#141414"></path>
  <path d="M85.0081 7.95483C81.7468 7.95483 67.8005 14.3421 60.2373 30.4166C62.2971 30.1931 64.3461 29.9908 66.3844 29.8205C66.3307 29.6715 66.2557 29.5011 66.1806 29.2776C65.9339 28.6069 65.376 28.9369 65.376 28.3089C65.376 28.1811 65.3975 28.064 65.4404 27.9469C66.0304 26.5417 66.0733 26.2436 66.3951 26.2436C66.7599 26.2436 67.3177 26.712 67.6717 26.712C68.0258 26.712 68.2082 26.4246 69.635 25.8498C69.989 25.7007 69.9783 25.5943 70.3859 23.9762C70.3967 23.9229 70.4074 23.8697 70.4074 23.8165C70.4074 22.8478 68.7017 22.8584 68.648 22.2729C68.7017 22.1345 68.5943 22.241 69.4097 21.1658C69.474 21.0913 69.5599 21.0487 69.6564 21.0487C70.2572 21.0487 71.448 21.4745 71.8128 21.4745C72.1561 21.4745 72.1346 21.1126 72.6495 20.1438C73.1537 19.2177 72.4779 18.3873 72.4779 18.0999C72.4779 17.2802 81.1782 10.4458 84.9759 8.45515C85.5445 8.15708 85.3728 7.95483 85.0081 7.95483Z" fill="#141414"></path>
  <path d="M174.232 56.5833C174.307 56.413 174.415 56.264 174.543 56.1362C174.672 56.0085 174.833 55.9127 175.005 55.8382C175.176 55.7636 175.359 55.7317 175.563 55.7317C175.766 55.7317 175.938 55.7636 176.12 55.8382C176.292 55.9127 176.442 56.0085 176.571 56.1362C176.7 56.264 176.807 56.413 176.882 56.5833C176.957 56.7537 177 56.9453 177 57.1369C177 57.3285 176.957 57.5308 176.882 57.7011C176.807 57.8714 176.7 58.0205 176.571 58.1482C176.442 58.2759 176.292 58.3718 176.12 58.4463C175.949 58.5208 175.766 58.5527 175.563 58.5527C175.359 58.5527 175.176 58.5208 175.005 58.4463C174.833 58.3718 174.672 58.2759 174.543 58.1482C174.415 58.0205 174.307 57.8714 174.232 57.7011C174.157 57.5308 174.114 57.3392 174.114 57.1369C174.114 56.9346 174.146 56.7537 174.232 56.5833ZM174.468 57.6266C174.533 57.7756 174.608 57.9034 174.715 58.0098C174.822 58.1163 174.94 58.2014 175.09 58.2653C175.241 58.3292 175.391 58.3611 175.563 58.3611C175.734 58.3611 175.884 58.3292 176.024 58.2653C176.163 58.2014 176.292 58.1163 176.399 58.0098C176.507 57.9034 176.592 57.7756 176.646 57.6266C176.71 57.4775 176.732 57.3179 176.732 57.1475C176.732 56.9772 176.7 56.8175 176.646 56.6685C176.592 56.5195 176.507 56.3917 176.399 56.2853C176.292 56.1788 176.163 56.0936 176.024 56.0298C175.884 55.9659 175.723 55.934 175.563 55.934C175.402 55.934 175.241 55.9659 175.09 56.0298C174.951 56.0936 174.822 56.1788 174.715 56.2853C174.608 56.3917 174.533 56.5195 174.468 56.6685C174.404 56.8175 174.382 56.9772 174.382 57.1475C174.382 57.3179 174.415 57.4882 174.468 57.6266ZM175.638 56.3172C175.831 56.3172 175.981 56.3598 176.077 56.4343C176.174 56.5088 176.217 56.6259 176.217 56.7856C176.217 56.9346 176.174 57.0411 176.088 57.1156C176.002 57.1901 175.895 57.222 175.777 57.2433L176.26 57.9779H175.981L175.53 57.2646H175.251V57.9779H174.994V56.3172H175.638ZM175.53 57.0517C175.584 57.0517 175.648 57.0517 175.702 57.0517C175.756 57.0517 175.799 57.0411 175.841 57.0198C175.884 56.9985 175.917 56.9772 175.938 56.9346C175.959 56.892 175.97 56.8495 175.97 56.7856C175.97 56.7324 175.97 56.6898 175.938 56.6579C175.917 56.6259 175.884 56.6046 175.852 56.5833C175.82 56.562 175.777 56.5514 175.734 56.5514C175.691 56.5514 175.648 56.5514 175.605 56.5514H175.262V57.073H175.53V57.0517Z" fill="#141414"></path>
  <path d="M48.3936 55.476C50.6143 55.146 52.8457 54.8479 55.0664 54.5818L54.5836 57.8286C51.1185 58.2544 47.6641 58.7548 44.2205 59.319V37.9111C47.6641 37.3469 51.1078 36.8465 54.5622 36.4207L55.0342 39.5504C52.8243 39.8166 50.6143 40.1146 48.4044 40.4447V46.5658C50.1208 45.3203 52.1484 44.969 53.2963 44.937V48.1626C50.5714 48.3329 48.3936 49.7913 48.4044 52.772V55.4653L48.3936 55.476ZM119.927 39.8059C118.608 39.6356 117.288 39.4759 115.969 39.3269L116.441 36.1971C120.206 36.6336 123.961 37.1552 127.705 37.7514L128.199 41.0195C126.836 40.796 125.474 40.5937 124.111 40.3914V58.6057C122.717 58.4035 121.333 58.2118 119.938 58.0309V39.8166L119.927 39.8059ZM68.7445 56.466C64.8073 56.7321 60.8702 57.0941 56.9437 57.5412V36.1333C60.3874 35.7394 63.8311 35.42 67.2855 35.1645L67.7575 38.3156C65.5476 38.4753 63.3376 38.6669 61.1277 38.8798V45.0115C63.0051 43.3722 65.3545 43.0102 66.0196 42.957V46.1825C65.4617 46.2251 61.1277 47.5026 61.1277 50.8027V53.9111C63.8311 53.645 66.5238 53.4214 69.2272 53.2511L68.7445 56.466ZM24.17 61.0009C24.17 69.0382 17.9263 73.0728 11.8757 73.0728C3.72253 73.0728 0 67.1859 0 61.7248C0 56.7854 3.03595 52.5591 7.92788 52.5591C12.2941 52.5591 14.7509 55.987 14.7509 59.2019C14.7509 59.7022 14.6972 60.1919 14.5792 60.639C13.0666 61.0755 11.554 61.5226 10.0413 61.991C10.4275 61.0222 10.7172 60.0641 10.7172 59.0954C10.7172 57.3815 9.41909 56.3808 8.02446 56.3808C5.64286 56.3808 4.18385 58.7441 4.18385 61.5545C4.18385 65.7914 7.64899 69.2299 11.9187 69.2299C16.1884 69.2299 19.6535 65.7914 19.6535 61.5545C19.6535 51.1752 7.13403 49.3229 7.13403 41.6902C7.13403 36.6017 11.2857 35.1432 14.1823 35.1432C16.285 35.1432 18.6129 36.3036 19.5248 37.102V42.265C18.7631 41.5198 16.5424 39.082 14.3539 39.082C13.7317 39.082 11.7792 39.3801 11.7792 41.5092C11.7792 46.4167 24.17 49.3761 24.17 61.0009ZM35.9278 60.82L33.1814 53.0169L31.4006 61.7568C30.2098 62.0123 29.0297 62.2784 27.8389 62.5552L23.0007 42.3183C24.4382 41.9563 25.8864 41.605 27.324 41.2644L29.8772 54.6031L32.9776 43.1592L36.904 53.134L38.5132 38.9117C39.7254 38.6882 40.9377 38.4646 42.15 38.2623L39.5216 60.1387C38.3201 60.3622 37.1186 60.5858 35.9278 60.8306M111.753 35.6862C110.047 35.5158 108.341 35.3774 106.635 35.239L100.574 56.2425C101.894 56.317 103.203 56.3915 104.522 56.4873L106.078 50.1C108.298 50.2917 110.734 51.0049 112.128 53.7088L112.965 57.2112C114.542 57.3709 116.108 57.5518 117.685 57.7328L111.742 35.6755L111.753 35.6862ZM106.829 47.0342L108.695 39.3695L110.798 48.1626C109.639 47.5877 108.32 47.2151 106.818 47.0342M80.8241 34.5258L81.2961 37.6981C79.9873 37.7194 78.6786 37.762 77.3698 37.8046V56.0295C75.9751 56.0721 74.5912 56.136 73.1966 56.2105V37.9962C71.8234 38.0707 70.4395 38.1453 69.0663 38.2411L69.5491 35.0261C73.3038 34.7813 77.0693 34.6216 80.8348 34.5364M165.081 53.3575C160.769 53.3575 158.419 56.9557 159.074 60.8519C160.468 61.2564 161.852 61.6716 163.236 62.0974C162.646 59.83 163.129 57.126 165.36 57.126C167.742 57.126 168.847 59.9896 168.847 62.8958C168.847 65.9617 167.313 69.1021 163.515 69.1021C156.885 69.1021 155.726 55.8486 152.551 52.3888C155.372 51.1007 157.411 48.3861 157.411 44.7667C157.411 39.0288 153.141 36.6123 147.423 35.7181C146.05 35.5052 144.655 35.3136 143.25 35.1326V62.1187C144.645 62.4274 146.039 62.7574 147.423 63.0874V52.5272C152.218 53.134 150.953 73.0622 163.697 73.0622C169.919 73.0622 172.955 67.9098 172.955 62.9278C172.955 57.9457 170.048 53.3469 165.07 53.3469M148.936 49.7594C148.378 49.7594 148.153 49.6316 147.434 49.4507V39.1566C149.88 39.1566 153.238 40.7002 153.238 44.3622C153.238 47.7687 150.856 49.7594 148.925 49.7594M134.099 57.0621C136.33 57.4773 138.562 57.9244 140.793 58.4035L140.332 61.4906C136.878 60.7561 133.402 60.0961 129.926 59.5106V38.1133C133.369 38.6988 136.792 39.3482 140.214 40.0614L140.707 43.3509C138.508 42.8825 136.309 42.446 134.11 42.0308V48.1519C136.148 47.3535 138.401 47.4068 139.002 47.5345V50.7601C138.444 50.643 134.11 50.4301 134.11 53.0914V57.0621H134.099ZM101.55 34.8984L97.7098 56.1041C96.4976 56.0508 95.2746 56.0083 94.0624 55.9763L92.1528 47.6622L89.4064 55.8805C88.2156 55.8699 87.0248 55.8592 85.834 55.8592L82.6264 34.4832C84.1068 34.4619 85.5873 34.4513 87.0678 34.4619L88.5482 48.4606L92.2708 37.8046L95.4355 48.631L97.8493 34.7174C99.083 34.7707 100.317 34.8345 101.561 34.909" fill="#141414"></path>
  <path d="M37.7513 70.7415C37.9766 71.7848 37.1398 72.8386 35.8739 73.1048L33.5995 73.5838L32.3015 67.5159L34.3291 67.0901C35.5735 66.824 36.6463 67.3243 36.8501 68.2718C36.9467 68.7402 36.8072 69.1766 36.4532 69.5492C37.1613 69.7195 37.6226 70.1241 37.7513 70.7308M34.0823 68.474L34.3184 69.5705C35.1873 69.3469 35.4555 69.1128 35.3804 68.7615C35.3053 68.4421 34.9942 68.2824 34.49 68.3889L34.0823 68.474ZM36.2279 70.9863C36.1314 70.5179 35.595 70.3583 34.5222 70.5392L34.844 72.0083L35.6164 71.8486C36.0241 71.7635 36.3245 71.4015 36.2386 70.9863" fill="#141414"></path>
  <path d="M42.6434 69.6451C42.386 69.7729 42.1285 69.8687 41.8281 69.9432L42.1714 71.8913L40.648 72.1574L39.5752 66.047L41.6564 65.685C42.815 65.4828 43.8986 66.2066 44.0917 67.2925C44.1882 67.846 44.0166 68.389 43.6519 68.8467L45.6472 71.2952L44.0058 71.5826L42.6327 69.6451H42.6434ZM41.6135 68.6764C42.2572 68.4635 42.6434 68.0164 42.5576 67.5373C42.4932 67.1754 42.1821 66.9199 41.7745 66.9944L41.3239 67.0689L41.6028 68.6764H41.6135Z" fill="#141414"></path>
  <path d="M51.8908 69.0597L52.0731 70.3691L47.9322 70.9546L47.0525 64.8015L51.0755 64.2373L51.2578 65.5467L48.7689 65.898L48.9513 67.1648L51.172 66.8561L51.3544 68.0909L49.1337 68.4103L49.2732 69.4216L51.8908 69.0597Z" fill="#141414"></path>
  <path d="M53.4355 63.9177L54.991 63.7474L56.375 67.5691L57.5872 64.3435L59.4646 67.2497L60.0118 63.2151L61.5565 63.0554L60.7305 69.3894L59.175 69.5491L57.9091 67.2923L57.1474 69.762L55.6025 69.9323L53.4355 63.9177Z" fill="#141414"></path>
  <path d="M65.5645 62.7493L64.0244 62.8699L64.5162 69.0569L66.0563 68.9364L65.5645 62.7493Z" fill="#141414"></path>
  <path d="M74.066 62.2466L74.4093 68.4422L73.004 68.5167L70.2898 65.1528L70.4829 68.6551L68.938 68.7403L68.6055 62.5447L70.0002 62.4595L72.725 65.8234L72.5319 62.3317L74.066 62.2466Z" fill="#141414"></path>
  <path d="M82.1546 64.8229L82.2297 67.4736C81.6933 67.9952 80.9531 68.3145 80.1378 68.3358C78.3677 68.3784 76.9194 67.0158 76.8765 65.2274C76.8229 63.4496 78.1961 62.0018 79.9662 61.9592C80.7493 61.9379 81.4788 62.1934 82.0366 62.6618L81.1355 63.8009C80.8351 63.4922 80.4382 63.3006 79.9983 63.3112C79.1079 63.3325 78.4106 64.1522 78.4428 65.1954C78.475 66.2387 79.2152 67.0052 80.1056 66.9839C80.3953 66.9839 80.6635 66.8774 80.8995 66.7177L80.878 65.9619L79.9125 65.9832L79.8803 64.8761L82.1546 64.8122V64.8229Z" fill="#141414"></path>
  <path d="M88.1946 65.0465C88.216 63.2688 89.6428 61.8742 91.413 61.8955C92.1961 61.8955 92.9149 62.1936 93.4513 62.6726L92.5072 63.7797C92.2176 63.4604 91.8314 63.2475 91.3915 63.2475C90.5011 63.2475 89.7716 64.0246 89.7609 65.0678C89.7501 66.1111 90.4582 66.9095 91.3486 66.9201C91.7992 66.9201 92.2176 66.7072 92.5072 66.3772L93.4513 67.495C92.8934 67.9953 92.1424 68.2827 91.3271 68.2827C89.557 68.2615 88.1624 66.835 88.1838 65.0572" fill="#141414"></path>
  <path d="M95.3818 65.1528C95.4569 63.375 96.916 62.023 98.6861 62.0869C100.445 62.1508 101.797 63.6305 101.722 65.3976C101.658 67.1754 100.199 68.538 98.4393 68.4635C96.6692 68.3996 95.3175 66.9306 95.3818 65.1528ZM100.145 65.3337C100.188 64.3011 99.5121 63.4602 98.6217 63.4282C97.7313 63.3963 96.9803 64.1628 96.9374 65.206C96.8945 66.2493 97.5811 67.0689 98.4715 67.1009C99.3619 67.1328 100.091 66.3664 100.134 65.3231" fill="#141414"></path>
  <path d="M105.08 62.47L106.657 62.5764L107.515 64.812L108.695 62.7148L110.262 62.8319L110.83 69.0914L109.264 68.985L108.942 65.0887L107.312 67.7182L106.067 64.8865L105.198 68.6975L103.632 68.5911L105.08 62.47Z" fill="#141414"></path>
  <path d="M115.014 67.58L114.821 69.4749L113.287 69.3152L113.92 63.1409L115.991 63.3431C117.171 63.4602 118.029 64.4715 117.922 65.5787C117.804 66.7816 116.538 67.6013 115.014 67.58ZM116.366 65.419C116.409 65.0358 116.162 64.6951 115.744 64.6632L115.304 64.6206L115.132 66.2919C115.808 66.2493 116.302 65.9087 116.355 65.4296" fill="#141414"></path>
  <path d="M123.113 69.4537L120.946 69.1769L120.539 70.1031L118.962 69.9008L121.901 64.0139L123.489 64.2162L124.841 70.646L123.264 70.4438L123.113 69.4537ZM122.92 68.304L122.502 65.632L121.408 68.1018L122.92 68.2934V68.304Z" fill="#141414"></path>
  <path d="M133.487 65.7274L132.468 71.8592L131.084 71.625L129.164 67.7607L128.585 71.2204L127.072 70.9756L128.08 64.8545L129.464 65.078L131.395 68.9423L131.964 65.4826L133.487 65.7274Z" fill="#141414"></path>
  <path d="M138.658 70.507L138.154 72.9555L136.641 72.6468L137.156 70.1451L135.89 66.1531L137.564 66.4937L138.218 68.9102L139.774 66.9408L141.447 67.2815L138.658 70.507Z" fill="#141414"></path>
</svg>
