<svg xmlns="http://www.w3.org/2000/svg" viewBox="0 0 520 620" class="footprint-map" role="img" preserveAspectRatio="xMidYMid meet">
<g class="land">
<path class="country" d="M256.954,0L255.51,0.792L249.143,5.216L245.426,7.324L244.768,8.533L244.241,10.273L246.088,10.949L246.75,11.673L246.161,12.487L242.724,15.095L241.347,17.804L243.613,18.097L245.517,17.867L249.493,16.715L253.112,15.948L254.763,16.169L257.828,17.734L258.533,17.898L259.984,17.622L261.363,17.791L270.648,19.525L273.318,19.314L274.967,20.315L276.131,22.358L277.024,25.927L276.891,26.464L275.84,27.881L274.01,29.588L272.287,32.068L271.687,33.446L271.231,34.997L270.574,36.367L266.931,42.801L263.726,46.158L262.185,48.703L260.393,50.601L258.832,51.723L257.224,52.382L252.773,52.686L251.483,53.135L249.877,54.089L248.253,54.43L250.023,54.618L251.881,54.262L255.09,54.522L258.417,57.369L257.793,59.141L256.084,60.39L252.689,60.105L249.042,62.803L247.456,63.555L245.892,63.804L244.035,63.344L240.756,61.933L239.427,60.796L240.551,62.455L241.9,63.492L250.508,66.779L251.055,66.665L254.16,65.189L257.93,65.778L264.612,70.373L266.279,73.392L268.714,77.676L270.111,79.438L271.128,80.992L271.537,83.114L272.032,90.127L272.689,96.956L273.872,104.455L274.547,106.556L275.66,108.113L281.747,112.231L283.038,113.451L285.199,116.886L287.23,120.499L289.191,123.296L291.402,125.618L290.07,126.559L289.025,128.134L289.409,130.484L290.11,132.771L291.682,136.514L293.049,140.528L292.452,139.857L291.82,139.482L290.843,139.415L289.952,139.158L288.399,137.769L286.946,136.089L283.666,136.281L281.944,135.813L280.372,135.612L283.229,136.827L286.425,137.326L292.76,144.545L294.761,148.579L295.594,153.723L294.35,155.878L292.648,157.129L291.036,158.639L289.459,160.351L293.146,163.583L294.023,163.584L294.995,163.296L295.905,162.451L297.642,160.35L298.47,159.644L300.967,159.622L303.046,159.999L305.088,160.718L306.954,160.767L310.553,162.139L312.314,163.216L316.687,167.64L317.469,169.909L317.695,172.772L317.457,175.889L316.369,178.674L315.181,181.15L314.293,184.402L313.795,185.599L313.142,186.431L310.296,188.838L308.49,189.702L307.842,189.187L307.081,189.158L306.952,189.793L307.571,191.203L307.468,192.837L305.829,193.864L304.196,194.192L301.735,193.283L297.89,195.111L300.363,196.527L300.738,197.813L299.876,199.864L298.18,200.678L296.294,200.87L294.44,200.764L292.853,201.135L291.279,201.954L293.185,201.621L294.402,202.256L295.032,204.121L295.673,204.741L299.228,205.876L301.398,206.108L305.784,206.117L307.821,206.375L308.557,206.748L308.408,208.228L307.716,211.893L307.064,212.574L301.035,215.039L299.584,217.078L299.126,218.324L295.799,217.766L294.107,218.926L291.232,219.553L289.057,220.303L286.851,221.297L285.069,221.439L277.958,219.091L273.494,218.688L267.339,219.199L265.825,218.751L263.727,217.274L261.459,216.121L258.806,215.41L256.585,213.954L257.765,216.318L254.197,217.923L252.661,218.108L251.123,217.84L247.82,217.966L244.902,217.24L245.137,218.777L245.724,220.164L245.064,220.619L244.333,220.662L238.871,218.845L238.003,218.914L237.225,219.698L235.23,218.941L233.469,217.115L231.507,215.755L229.4,214.921L227.57,214.83L219.991,216.005L218.113,218.154L216.841,221.407L215.308,224.214L213.173,226.215L211.107,226.215L209.442,224.271L206.128,221.885L205.051,220.439L204.673,220.322L204.209,220.693L202.694,220.978L201.21,220.713L198.865,220.795L194.606,221.48L192.813,222.157L188.889,224.197L188.04,224.794L186.305,227.239L184.268,227.357L182.844,225.32L180.96,224.301L178.767,224.532L177.302,225.154L176.863,224.311L177.094,222.791L179.005,221.248L183.398,220.685L187.629,217.76L189.843,215.909L190.714,214.813L191.759,214.202L192.905,214.113L193.736,212.856L199.668,208.304L200.336,207.166L200.998,204.97L201.768,202.894L206.031,202.198L208.74,197.998L209.308,197.746L215.033,197.885L219.149,198.635L223.129,200.203L225.21,200.645L227.363,200.644L229.213,199.688L232.769,195.738L234.66,194.03L236.769,192.554L238.785,190.81L242.129,187.512L240.046,188.497L237.459,190.203L237.459,190.203L236.013,191.182L231.662,191.698L229.697,192.638L226.091,194.864L225.481,195.015L220.851,193.544L217.911,189.427L215.958,187.584L215.048,187.226L214.028,187.502L211.874,187.579L209.806,187.165L211.168,185.694L212.776,185.019L209.686,183.821L208.832,183.165L208.029,181.864L205.558,181.218L204.315,181.295L201.971,182.429L198.476,183.446L195.01,180.477L194.444,179.36L194.804,177.461L194.529,175.844L193.562,175.155L195.303,173.468L197.17,172.459L201.024,171.818L207.109,169.809L210.388,169.039L213.64,167.3L215.057,166.139L216.258,164.386L217.462,162.23L219.027,160.538L217.933,159.895L217.626,158.381L218.058,156.996L218.771,155.811L218.623,154.123L218.055,152.31L218.339,151.05L218.771,149.665L216.615,149.386L214.336,149.435L212.205,150.061L210.07,151.037L208.373,150.98L208.57,149.906L209.544,148.722L211.774,147.21L214.128,146.02L215.078,144.929L215.87,143.659L217.104,142.718L220.148,141.087L225.591,139.611L226.405,139.599L228.357,140.232L230.356,140.216L232.202,139.617L233.993,139.712L237.412,142.834L236.877,138.824L238.716,138.216L240.655,142.046L241.512,142.534L243.534,142.35L242.837,141.637L241.994,141.454L240.918,140.781L240.188,139.508L239.111,135.765L239.563,133.724L240.935,131.731L242.46,129.912L241.56,129.366L240.836,128.495L240.979,126.455L241.555,124.786L243.902,123.55L244.874,121.288L245.584,118.733L245.412,117.498L243.295,117.363L242.203,117.691L241.183,118.332L240.236,118.129L238.149,114.816L237.02,112.412L235.174,107.415L235.281,104.609L238.326,99.064L242.175,95.815L246.137,95.096L245.475,94.738L239.751,93.751L237.739,93.92L235.728,95.147L234.65,95.469L233.629,95.446L232.499,96.061L231.435,96.989L230.32,97.503L228.419,96.971L227.438,97.052L226.905,96.301L226.56,95.179L225.842,94.799L224.971,94.948L223.028,96.017L221.121,96.533L219.172,95.269L216.661,93.138L216.027,93.628L215.102,95.025L214.323,97.259L212.765,94.892L211.586,91.834L211.317,90.061L211.679,88.153L212.7,87.536L213.56,88.407L215.866,84.128L219.86,78.74L221.215,77.216L222.319,75.088L222.482,73.547L222.075,72.206L219.961,68.875L220.398,66.523L221.167,63.977L222.199,62.545L222.538,62.303L226.062,63L224.847,61.916L222.55,59.059L222.761,58.235L223.793,56.142L223.464,56.335L222.716,57.212L221.124,59.454L220.332,59.915L218.288,60.14L217.725,61.252L217.319,61.531L216.332,61.445L215.833,62.518L215.587,62.573L215.535,61.293L215.918,59.284L216.671,57.498L217.678,56.216L221.072,53.453L219.521,54.228L215.828,56.677L213.863,58.332L213.334,58.941L213.05,59.496L212.927,60.133L212.987,63.801L212.448,65.373L207.675,75.567L206.947,76.541L206.38,76.989L205.89,77.045L204.603,76.589L204.133,75.633L204.307,74.753L204.865,73.441L206.958,68.571L207.752,67.254L208.754,66.078L210.744,64.079L210.773,63.932L209.603,64.161L209.175,63.925L208.976,63.429L210.479,56.658L211.769,54.572L212.747,51.355L214.023,48.705L215.266,46.809L216.441,44.341L217.621,43.347L218.24,41.634L219.669,39.923L220.89,38.07L220.406,38.182L214.036,42.348L212.443,43.054L210.642,42.444L209.303,41.567L208.438,40.07L208.407,37.618L207.078,37.3L205.996,36.622L206.055,36.328L207.827,35.31L210.365,35.36L213.055,33.753L211.281,31.923L211.536,31.515L213.545,30.69L216.55,27.101L217.766,23.516L217.001,21.581L216.837,20.376L215.002,18.688L214.939,16.991L215.389,16.162L216.221,15.408L217.396,14.925L219.172,14.559L217.831,13.581L217.449,12.638L217.245,11.373L217.391,10.635L218.764,7.689L219.45,6.496L220.636,5.043L224.524,5.899L225.1,5.243L225.544,5.277L227.421,6.349L227.235,5.549L224.73,1.036L224.602,0.246L224.773,0L256.954,0ZM219.199,137.946L219.771,138.601L221.606,138.822L220.795,139.89L218.621,140.869L217.06,141.904L215.288,142.698L214.717,141.334L213.798,141.22L212.895,138.585L213.291,135.023L215.211,134.411L217.679,134.903ZM197.925,38.529L196.991,38.537L197.027,38.085L198.989,36.506L199.998,36.41L200.291,36.675L199.398,37.612ZM215.194,75.284L213.179,74.902L212.535,74.526L211.803,73.675L211.57,69.621L212.178,68.317L212.701,67.757L213.205,67.296L214.338,67.259L215.229,68.189L215.499,68.951L215.859,71.759L215.607,74.044ZM209.49,47.969L202.927,48.281L200.818,47.697L200.754,46.868L201.304,46.472L203.147,46.339L204.642,42.719L202.371,40.42L202.303,39.896L202.698,39.11L203.047,38.825L204.847,38.275L205.556,38.215L206.095,38.426L207.06,39.692L207.924,42.056L209.536,42.734L210.529,43.899ZM201.616,58.504L201.452,62.236L201.567,64.599L201.41,65.381L200.678,66.352L197.817,67.246L196.959,67.07L197.029,66.728L197.901,65.38L197.717,63.663L198.206,62.44L198.018,62.198L197.475,62.239L195.181,63.853L194.513,63.918L194.537,63.515L195.338,61.95L195.617,60.888L196.044,60.263L196.687,59.734L197.413,59.375L197.877,59.42L198.289,60.013L200.103,58.959ZM203.457,62.284L203.057,62.509L202.269,62.299L202.083,61.753L202.05,61.034L202.307,59.763L202.949,58.926L205.268,57.967L204.458,57.296L204.47,56.942L205.272,55.882L207.832,54.56L208.466,54.33L209.022,54.491L207.259,57.448ZM206.944,0L206.369,0.366L204.617,0.92L202.443,2.92L201.576,2.736L200.386,4.071L199.545,4.557L199.165,4.476L198.741,4.077L198.028,2.385L200.238,1.323L200.622,0.585L202.055,0L206.944,0ZM205.196,28.909L204.682,29.161L204.139,28.998L203.63,28.383L203.185,26.912L205.035,26.323L205.643,27.009L205.733,27.692L205.593,28.377ZM210.407,14.038L210.093,15.303L209.52,16.719L209.585,18.367L209.421,19.457L210.001,19.983L210.286,20.552L213.029,21.714L215.765,22.053L216.164,22.641L216.074,23.388L215.479,24.087L213.698,25.265L211.406,27.257L210.755,27.637L210.136,27.564L209.798,27.241L210.317,22.957L208.279,23.106L206.691,22.731L205.911,22.06L205.507,20.955L204.825,18.157L201.476,16.384L200.78,14.805L200.638,13.854L200.896,13.448L201.823,12.569L202.679,13.107L203.321,13.037L203.751,12.616L203.833,12.224L203.527,11.238L203.589,10.944L207.421,10.565L208.067,8.805L208.914,8.826L209.664,9.593L210.538,11.714ZM195.389,5.659L196.733,7.591L194.8,9.939L192.73,9.487L190.214,6.932L190.301,6.54L190.648,6.002L191.191,5.609L191.701,5.619L192.331,6.117L193.481,5.806L194.252,6.18ZM191.247,21.51L190.555,21.512L189.761,21.185L189.308,20.624L189.19,18.805L189.318,17.706L189.968,15.8L190.42,13.49L192.191,13.777L192.553,14.215L191.311,21.217ZM187.735,25.142L186.323,25.24L185.87,24.934L185.846,24.519L186.394,23.616L187.517,23.507L188.116,24.202L188.118,24.715ZM189.634,109.974L188.301,109.549L187.194,109.829L186.452,110.132L185.87,109.961L184.062,109.738L182.345,109.378L182.262,108.599L183.027,106.423L182.796,105.765L181.264,105.137L180.787,104.477L180.165,102.769L180.143,102.002L180.233,101.004L179.563,99.539L178.586,98.363L177.893,98.163L176.217,99.378L174.773,100.642L175.026,101.46L175.169,102.508L174.362,103.097L172.175,104.349L171.741,104.916L171.136,105.139L170.358,104.459L168.154,104.072L167.206,103.607L166.3,102.13L163.603,100.656L163.503,98.645L163.052,98.185L160.527,94.138L160.374,92.929L160.929,92.393L162.389,91.657L166.848,90.937L167.632,90.451L167.88,89.895L166.81,88.939L165.927,87.974L165.688,87.409L165.729,86.96L166.49,86.571L167.722,86.799L168.598,87.252L169.463,86.936L170.967,86.763L171.979,86.326L173.148,84.903L174.283,83.625L174.513,82.86L175.877,80.255L176.374,79.651L179.31,78.408L179.723,79.568L180.942,80.087L182.297,79.412L184.242,76.824L185.196,76.875L186.192,77.291L188.283,77.377L192.134,76.809L193.759,77.094L195.869,78.239L197.543,78.58L198.632,80.934L198.795,84.319L200.009,87.913L201.963,91.192L201.694,92.864L200.635,93.618L198.54,94.369L198.356,95.6L199.653,95.199L200.755,95.163L203.283,95.913L203.915,97.355L204.15,99.275L204.209,100.858L203.652,102.472L203.109,101.809L202.688,100.207L202.058,99.374L201.186,98.848L201.204,100.93L200.491,103.629L200.856,103.954L202.084,104.245L200.724,106.816L198.916,107.272L196.908,107.179L196.241,108.06L195.633,109.257L194.256,110.908L192.736,111.718L191.115,111.188ZM262.095,220.655L260.415,221.429L259.81,222.497L259.362,222.886L258.353,223.049L257.377,222.965L253.953,220.14L253.036,220.112L254.026,219.15L256.525,218.647L257.969,217.696L260.849,219.188Z"/>
<path class="country" d="M453.6,323.06L454.157,323.403L455.556,324.68L455.295,326.813L453.72,330.294L452.901,333.075L452.845,335.256L452.991,336.246L453.271,336.245L454.812,336.382L455.583,336.376L457.969,336.9L459.939,337.722L460.371,338.659L460.594,339.747L462.929,341.205L465.613,342.109L466.522,341.798L469.762,338.224L471.105,338.794L471.913,340.662L471.861,341.605L471.016,345.34L470.913,347.375L471.714,348.649L471.804,349.689L471.61,350.635L470.269,350.759L468.492,350.244L466.982,348.682L465.785,348.899L464.802,349.31L464.329,350.854L463.929,352.644L464.085,353.684L464.804,354.417L465.396,356.095L465.783,358.222L466.153,359.208L465.804,359.61L464.883,359.921L464.097,359.684L462.642,357.125L461.99,356.141L460.924,356.005L459.014,356.621L456.116,358.087L454.908,358.097L453.911,357.806L452.98,356.622L452.186,354.297L451.894,352.811L451.328,352.863L449.485,352.426L448.638,353.024L448.646,355.404L448.443,358.43L447.524,360.317L444.895,363.694L443.968,365.133L443.54,366.175L443.468,367.068L443.898,368.656L444.399,370.144L443.97,371.037L442.608,371.483L441.605,370.54L441.249,368.952L439.109,366.714L440.042,364.882L439.901,364.385L436.409,363.43L434.919,362.034L432.8,359.54L432.381,358.496L432.548,355.075L432.413,354.231L432.132,353.832L431.14,353.824L429.712,355.002L428.347,356.774L425.625,358.777L425.336,359.17L426.237,361.165L426.157,361.908L423.98,365.006L423.537,366.042L420.722,367.937L419.423,368.661L415.586,367.156L414.517,366.937L412.71,367.893L410.259,368.734L406.3,369.585L404.814,368.852L404.187,368.191L403.854,367.239L402.897,365.576L401.782,364.553L401.028,363.44L400.065,362.222L399.451,361.261L400.397,358.113L399.79,357.004L399.482,355.407L399.726,354.323L399.379,354.065L395.855,353.361L392.874,353.461L390.783,354.43L388.948,356.101L388.72,356.489L388.851,356.792L389.646,358.409L388.16,360.091L385.834,361.294L384.262,361.381L383.559,361.105L383.633,359.272L384.938,358.678L386.192,357.536L386.612,355.864L386.797,354.73L385.648,353.247L385.822,352.41L386.665,350.755L387.144,349.335L387.826,348.12L390.301,346.127L392.837,344.183L393.265,341.965L393.567,339.297L393.939,338.665L397.285,337.187L398.076,336.567L398.523,335.688L401.199,332.793L403.864,329.892L404.378,328.915L404.812,328.331L404.825,327.836L404.556,327.482L403.31,327.2L402.918,326.248L404.285,324.6L405.979,323.603L407.575,323.643L408.189,324.105L408.106,324.648L408.787,325.259L410.033,325.486L411.497,325.321L413.039,324.71L413.973,323.242L414.481,322.112L416.862,320.869L418.445,321.542L422.809,321.808L426.071,321.504L428.091,320.635L430.584,320.659L432.243,321.169L432.521,321.121L433.007,320.976L433.426,320.533L435.021,320.197L435.231,319.801L435.164,319.405L434.888,319.205L432.949,319.39L432.19,319.087L432.058,318.343L432.689,317.109L434.078,316.128L435.322,315.888L436.149,316.14L438.283,318.032L438.767,318.133L439.114,317.787L439.529,317.59L440.289,317.939L441.047,319.129L441.185,319.328L445.96,318.882L446.998,318.879L450.259,320.949Z"/>
<path class="country" d="M520,95.392L513.987,97.571L506.793,96.066L507.567,94.03L507.49,92.537L507.723,90.279L507.833,87.927L507.691,86.337L507.082,84.721L505.287,82.616L500.999,75.485L499.761,72.445L498.897,71.186L499.468,71.11L502.705,72.604L503.442,72.368L504.157,71.683L503.122,69.385L502.266,68.327L501.616,66.759L503.481,66.218L504.8,66.251L505.676,64.355L504.957,61.491L503.486,60.616L502.274,60.326L499.779,55.793L497.291,53.506L492.666,44.496L490.894,38.207L489.466,38.865L488.689,36.139L488.086,33.506L487.903,31.608L485.643,30.589L485.538,29.239L484.88,23.243L482.539,22.522L480.886,19.164L480.405,12.753L478.84,11.648L477.596,12.037L477.602,10.429L477.83,8.915L476.949,3.061L476.737,0L520,0Z"/>
<path class="country" d="M276.104,569.073L275.583,569.376L274.158,568.881L271.887,568.653L271.922,567.493L272.327,566.725L272.817,565.915L274.029,567.705L276.188,568.222ZM313.595,539.885L315.675,541.001L317.972,540.319L319.149,540.659L320.313,541.197L320.416,543.067L319.226,545.042L317.633,546.988L316.182,549.144L314.941,551.669L312.814,553.068L310.896,553.825L307.192,551.615L304.986,550.931L304.402,550.177L304.081,547.228L303.196,546.247L301.709,545.72L300.37,546.311L298.556,547.718L297.729,546.084L296.391,545.716L295.915,544.716L296.016,543.566L305.778,537.397L308.53,536.061L314.317,534.708L315.171,535.026L314.371,536.07L314.336,536.521L315.014,537.076L314.789,537.914L314.018,538.559ZM339.13,540.163L338.71,540.488L332.156,536.697L329.953,536.197L329.43,535.658L329.629,533.913L329.839,533.173L334.388,533.126L337.964,534.562L339.742,538.04L339.867,538.6ZM273.492,561.634L272.508,563.305L269.175,562.359L268.445,561.525L269.377,559.599L270.452,559.456L270.595,558.055L271.789,556.712L276.734,556.045L277.763,557.156L277.868,558.581L274.662,561.347ZM98.282,620L95.792,618.321L92.827,614.935L91.025,614.418L88.877,609.635L88.097,606.681L87.765,603.664L88.154,602.605L88.099,601.611L85.69,599.926L85.573,597.161L88.245,594.196L90.113,593.028L91.181,592.833L88.766,592.494L86.589,594.32L85.099,590.341L77.609,581.629L78.508,580.218L78.616,579.311L76.756,580.826L75.588,581.094L71.08,579.81L65.674,579.506L65.86,572.093L65.812,569.236L66.032,567.474L68.303,563.736L70.128,562.381L72.811,559.406L75.852,557.075L78.487,556.975L79.71,556.774L81.062,554.795L82.026,553.043L81.666,552.759L78.69,552.531L75.11,543.551L75.55,542.307L76.598,540.578L77.582,538.371L78.071,536.52L79.766,535.242L82.174,534.118L84.409,532.233L85.768,530.159L86.439,528.195L85.717,526.548L83.042,525.147L81.377,518.766L81.534,515.046L80.992,514.516L79.544,512.5L78.494,509.08L78.368,508.537L80.287,508.397L87.575,509.941L89.278,509.641L89.566,509.446L91.412,507.328L93.657,503.705L94.482,501.368L94.224,500.288L92.329,497.369L92.41,496.617L93.04,495.574L94.7,494.648L96.931,493.69L98.276,492.696L98.242,491.715L97.831,490.604L97.941,489.705L98.567,488.661L99.467,484.807L99.983,483.893L100.337,480.335L100.48,477.398L99.73,473.402L100.214,472.636L101.049,472.098L103.536,471.297L106.01,468.651L109.203,466.716L113.048,465.421L115.872,463.656L117.211,462.145L117.995,461.795L117.927,460.965L117.711,459.697L116.576,458.292L114.964,457.297L112.994,456.889L111.823,456.441L111.714,455.449L112.289,453.07L112.714,450.659L112.561,449.505L111.83,448.485L109.97,448.35L108.608,447.348L107.435,446.945L106.653,447.289L103.297,446.418L101.951,445.719L100.993,445.052L100.339,445.165L99.857,445.571L99.622,446.286L99.195,447.164L97.723,447.763L94.743,448.029L92.505,447.431L90.527,446.377L89.959,445.738L89.069,445.13L84.673,444.649L84.224,444.188L82.596,444.738L80.17,445.309L78.956,445.08L78.55,444.782L78.512,444.26L77.993,442.398L78.421,441.575L80.742,439.396L80.726,438.778L80.168,437.778L79.851,436.424L79.762,435.789L78.663,435.432L77.395,435.802L72.613,436.013L71.463,436.202L69.218,437.003L66.745,438.413L65.154,438.442L64.696,437.715L65.61,433.264L68.696,430.927L70.764,429.523L70.101,429.006L68.303,428.627L68.715,427.238L69.758,426.821L70.935,425.513L70.132,424.603L69.623,423.455L70.24,420.886L70.718,419.873L70.763,418.705L66.765,419.381L65.863,418.905L66.334,416.968L69.031,414.545L69.463,413.726L67.211,412.719L65.799,410.836L65.077,409.325L64.354,407.198L64.758,405.554L66.868,402.021L68.834,401.271L70.461,400.95L74.173,399.031L78.221,400.512L80.978,400.603L83.635,399.796L85.102,399.782L87.491,399.112L87.789,397.495L87.342,396.114L88.257,395.151L90.985,394.301L94.089,393.126L97.221,393.482L100.72,392.537L102.59,394.077L104.485,394.142L106.328,395.823L108.481,399.25L112.319,401.306L115.807,401.087L121.542,402.148L124.398,403.099L129.662,403.472L132.542,404.311L137.514,403.836L140.904,406.332L147.863,408.544L151.848,410.822L163.34,415.426L167.685,416.256L173.98,415.948L176.741,415.365L178.993,416.408L182.662,415.818L184.327,416.299L186.183,418.374L193.511,421.89L195.818,420.293L197.368,420.086L202.663,422.124L207.858,425.386L210.733,425.969L215.062,425.954L218.707,424.874L219.403,424.773L219.403,424.773L219.336,425.77L219.881,427.256L220.703,427.876L222.39,428.82L223.716,429.108L225.529,429.713L226.686,430.679L226.596,431.873L226.032,433.202L225.114,434.331L224.528,435.256L224.901,435.861L225.512,436.398L226.171,436.59L226.715,436.515L227.191,435.826L227.993,434.981L228.38,434.934L228.312,435.427L228.523,436.109L230.688,437.56L235.435,440.256L237.378,440.562L238.996,441.024L239.337,441.922L242.161,445.5L242.926,445.497L244.349,445.727L246.11,445.697L247.387,445.254L248.203,445.455L249.026,446.21L250.019,446.834L251.323,448.047L252.373,449.479L253.149,450.025L258.308,449.733L259.348,450.657L260.555,450.797L261.936,450.755L264.835,451.485L267.262,451.657L267.527,451.335L268.067,448.537L268.559,447.539L269.113,447.349L270.522,447.704L275.466,449.941L277.47,451.205L279.421,452.259L281.224,452.545L282.301,453.206L283.69,456.102L283.328,457.418L283.354,457.922L283.487,458.887L283.306,459.922L283.692,460.662L284.442,460.837L285.53,460.695L286.632,460.403L288.717,459.454L289.267,459.307L292.403,460.96L293.767,461.94L294.206,462.983L294.803,463.99L295.778,464.231L297.235,463.413L299.531,462.62L303.102,463.84L307.101,465.487L308.84,465.785L308.971,465.145L309.351,464.276L310.069,463.936L311.07,463.869L312.553,463.541L314.215,462.876L315.836,462.706L317.541,463.392L319.633,464.056L320.927,464.155L321.323,465.986L322.337,466.764L322.602,468.334L320.706,469.04L319.553,469.052L319.039,471.714L319.437,472.546L320.454,473.324L320.7,474.144L320.626,478.143L318.291,480.366L315.003,482.813L299.385,490.171L295.448,494.032L294.043,494.858L282.694,496.439L274.561,498.482L270.725,499.086L265.53,503.46L263.128,505.21L264.863,505.954L266.642,508.513L265.825,509.482L262.677,510.75L261.29,511.101L260.613,510.774L259.886,510.894L253.903,518.786L248.619,524.379L245.778,526.719L242.773,530.349L235.954,539.931L235.51,542.861L237.06,553.38L238.26,556.262L240.244,558.781L244.294,561.187L245.041,563.2L243.374,564.828L238.783,567.526L230.875,570.921L227.279,573.921L226.21,577.138L223.817,578.358L222.409,582.854L220.706,585.737L220.249,586.695L218.549,588.866L218.169,590.496L220.164,593.148L218.882,594L217.672,594.301L215.005,594.205L206.079,593.307L198.216,597.311L193.948,601.247L189.523,609.04L184.813,613.363L182.931,614.005L180.509,611.44L177.155,610.573L173.716,610.813L171.798,612.206L168.905,612.728L166.37,611.507L160.792,610.15L158.202,609.831L153.992,610.524L150.738,609.056L145.089,607.635L132.469,606.506L130.879,606.788L128.935,608.548L124.315,611.314L118.305,610.359L112.399,611.57L110.794,612.762L107.71,616.252L106.404,618.998L105.977,618.968L105.527,618.157L104.571,618.179L103.854,620L98.282,620Z"/>
<path class="country" d="M66.745,438.413L69.218,437.003L71.463,436.202L72.613,436.013L77.395,435.802L78.663,435.432L79.762,435.789L79.851,436.424L80.168,437.778L80.726,438.778L80.742,439.396L78.421,441.575L77.993,442.398L78.512,444.26L78.55,444.782L78.956,445.08L80.17,445.309L82.596,444.738L84.224,444.188L84.673,444.649L89.069,445.13L89.959,445.738L90.527,446.377L92.505,447.431L94.743,448.029L97.723,447.763L99.195,447.164L99.622,446.286L99.857,445.571L100.339,445.165L100.993,445.052L101.951,445.719L103.297,446.418L106.653,447.289L107.435,446.945L108.608,447.348L109.97,448.35L111.83,448.485L112.561,449.505L112.714,450.659L112.289,453.07L111.714,455.449L111.823,456.441L112.994,456.889L114.964,457.297L116.576,458.292L117.711,459.697L117.927,460.965L117.995,461.795L117.211,462.145L115.872,463.656L113.048,465.421L109.203,466.716L106.01,468.651L103.536,471.297L101.049,472.098L100.214,472.636L99.73,473.402L100.48,477.398L100.337,480.335L99.983,483.893L99.467,484.807L98.567,488.661L97.941,489.705L97.831,490.604L98.242,491.715L98.276,492.696L96.931,493.69L94.7,494.648L93.04,495.574L92.41,496.617L92.329,497.369L94.224,500.288L94.482,501.368L93.657,503.705L91.412,507.328L89.566,509.446L89.278,509.641L87.575,509.941L80.287,508.397L78.368,508.537L78.494,509.08L79.544,512.5L80.992,514.516L81.534,515.046L81.377,518.766L83.042,525.147L85.717,526.548L86.439,528.195L85.768,530.159L84.409,532.233L82.174,534.118L79.766,535.242L78.071,536.52L77.582,538.371L76.598,540.578L75.55,542.307L75.11,543.551L78.69,552.531L81.666,552.759L82.026,553.043L81.062,554.795L79.71,556.774L78.487,556.975L75.852,557.075L72.811,559.406L70.128,562.381L68.303,563.736L66.032,567.474L65.812,569.236L65.86,572.093L65.674,579.506L63.65,579.37L54.853,582.272L52.483,581.733L48.457,578.682L40.794,576.169L38.328,574.963L34.838,575.536L32.408,574.901L29.957,576.131L28.692,575.304L31.235,571.913L35.548,565.048L36.564,560.46L38.083,556.619L38.382,552.539L37.688,549.777L40.901,543.808L41.53,540.486L41.006,536.008L45.548,537.769L44.434,535.743L43.238,534.421L41.84,534.292L40.66,533.956L36.296,534.606L34.19,534.609L33.626,534.16L34.489,531.675L34.276,528.098L36.075,527.607L38.034,527.827L39.962,526.794L41.302,525.411L41.425,522.49L43.495,520.145L47.186,518.655L45.451,518.6L43.22,519.561L38.989,523.916L37.408,526.275L34.594,526.465L32.193,526.339L31.159,525.771L29.895,524.782L30.212,522.839L30.747,521.365L32.445,518.574L33.827,514.359L36.183,510.904L36.28,509.841L36.263,508.232L37.876,507.079L39.601,506.47L42.601,503.69L47.616,496.648L53.259,489.24L53.196,488.142L52.6,487.225L53.449,485.058L57.941,475.835L59.087,474.77L60.768,472.135L62.087,467.614L63.221,464.541L63.526,462.917L63.674,460.948L63.179,456.975L63.669,448.922L64.136,446.311L65.568,445.319L63.734,444.674L63.317,442.775L63.912,440.967Z"/>
<path class="country" d="M449.334,0L448.343,1.583L447.1,1.839L446.399,2.595L446.185,3.651L442.444,6.718L436.257,14.479L433.01,16.662L430.793,18.948L428.817,18.824L426.318,20.746L420.015,22.34L415.903,21.497L412.97,22.076L411.464,20.73L411.271,19.772L411.395,19.273L411.687,18.629L411.145,18.363L409.996,18.23L409.483,18.867L409.385,20.319L408.823,20.704L406.706,19.786L406.181,19.016L406.997,17.536L408.411,16.175L408.145,15.915L407.898,15.054L407.299,14.935L405.377,15.074L403.799,14.769L398.833,11.472L397.754,9.772L393.783,6.992L392.063,4.1L391.174,0.991L391.258,0L449.334,0Z"/>
<path class="country" d="M389.209,229.933L387.392,229.81L385.706,229.69L384.803,229.503L383.848,229.015L383.433,228.104L382.961,227.042L383.121,226.355L384.82,224.594L385.102,224.061L384.919,223.805L385.149,222.972L386.493,220.251L386.67,219.118L386.188,218.304L385.37,217.823L382.833,216.868L381.663,215.674L381.197,214.611L380.633,214.287L379.782,214.594L377.643,214.889L375.936,214.258L373.981,212.224L373.623,210.468L373.434,209.168L372.948,208.646L372.208,209.302L371.318,210.346L369.584,210.352L369.15,210.079L369.054,209.478L369.021,208.931L368.548,208.209L368.123,207.788L365.836,209.644L365.007,209.546L364.027,208.744L363.56,207.971L362.447,208.351L361.369,209.18L361.648,210.934L361.053,211.196L359.845,210.972L358.48,210.192L356.973,209.648L354.684,208.307L351.356,209.076L349.137,207.73L347.292,207.499L346.146,206.472L345.046,204.851L346.014,203.879L346.867,203.593L350.321,203.639L352.826,204.457L357.135,208.119L358.289,208.143L359.528,207.824L358.948,206.844L357.827,206.326L356.226,205.329L354.972,203.955L358.119,203.762L357.715,203.09L357.406,201.928L354.36,197.803L355.003,196.753L355.977,194.532L357.111,192.718L357.964,192.277L359.439,191.029L362.584,187.251L364.664,184.147L366.266,180.466L368.87,170.081L369.592,168.333L370.634,166.403L371.851,166.868L372.626,167.458L375.679,166.129L381.004,162.52L382.645,159.219L384.194,157.75L390.165,154.929L393.392,154.164L398.37,154.1L402.007,153.675L406.305,153.608L407.908,155.541L408.792,156.956L410.31,157.741L412.696,158.346L412.446,161.072L412.379,166.433L412.171,167.371L410.998,169.626L409.777,173.616L409.396,176.286L409.07,176.824L404.453,176.645L403.813,177.122L403.672,177.663L403.901,178.365L403.755,179.056L403.363,179.59L403.524,180.488L404.308,181.504L405.73,182.191L407.296,182.284L408.113,182.207L408.659,182.917L409.258,184.024L409.158,185.46L408.858,187.288L408.12,189.005L405.921,190.929L404.892,191.594L403.996,191.964L403.539,192.447L403.329,193.135L403.374,193.731L404.845,195.362L404.772,195.708L404.304,196.537L403.71,197.313L399.726,198.825L398.081,198.621L397.165,199.383L396.84,199.57L395.852,198.742L393.536,197.814L392.7,198.08L392.174,198.556L390.692,199.043L389.641,199.895L389.595,201.034L391.323,204.079L391.937,204.698L391.893,205.837L392.734,207.258L393.628,209.028L393.651,210.12L393.545,211.257L392.973,212.822L391.226,216.475L391.197,217.218L391.305,217.768L391.878,217.938L392.253,218.25L392.106,218.74L388.975,221.197L388.569,221.627L387.349,221.428L387.137,221.865L387.237,222.564L387.728,223.229L388.814,223.571L389.694,224.25L390.42,225.568ZM358.48,210.192L358.155,211.263L357.439,212.41L354.956,213.937L352.376,214.908L351.166,214.676L350.308,214.021L349.899,213.397L348.594,212.709L346.82,212.285L345.619,212.844L344.806,213.381L344.107,213.23L343.631,212.698L343.241,211.874L342.913,209.365L344.289,209.02L347.246,209.036L349.422,210.085L352.34,210.683L354.723,209.651L356.448,210.806ZM398.159,151.359L395.735,152.265L395.13,152.044L395.325,151.753L397.428,151.234ZM391.244,152.588L387.855,152.893L386.706,152.495L386.536,152.189L387.463,152.031L390.344,152.104L391.189,152.436ZM377.056,156.259L373.749,158.173L373.519,157.862L375.646,156.136ZM380.852,154.212L379.244,154.381L378.528,153.948L382.446,152.996L384.853,152.76L385.275,152.928ZM372.877,162.849L371.035,164.785L370.017,164.131L369.795,163.671L370.379,162.114L373.053,159.627ZM354.224,199.831L355.902,201.483L356.187,201.998L356.279,202.55L354.076,203.001L351.849,200.962L350.292,201.302L349.783,200.371L349.824,199.778L351.443,199.443ZM405.015,149.545L403.484,149.598L403.935,148.867L405.419,148.315L406.213,148.338Z"/>
<path class="country" d="M411.2,430.663L409.922,431.134L410.01,430.538L410.315,430.196L410.691,430.055L411.132,430.313Z"/>
<path class="country" d="M390.797,247.991L390.571,248.725L390.57,250.46L391.034,252.163L392.16,253.891L393.04,255.162L394.262,256.197L396.415,257.213L397.27,257.44L397.295,258.68L397.118,260.012L396.363,260.73L395.596,261.744L395.02,263.013L394.401,265.469L394.273,267.199L393.031,266.461L392.382,265.942L391.254,265.752L390.106,266.105L389.271,266.965L388.061,267.165L387.136,266.881L386.562,266.213L386.112,265.798L384.662,265.341L384.102,264.376L384.587,263.95L385.018,263.225L385.389,262.298L385.894,261.378L384.603,258.845L384.305,258.039L383.238,256.605L383.268,255.913L383.563,255.231L383.52,254.684L383.706,253.453L384.549,252.299L385.14,250.837L386.145,248.896L388.284,246.554L389.649,247.005L390.306,247.03L390.669,247.887Z"/>
<path class="country" d="M517.105,482.442L517.096,482.242L516.865,482.253L516.872,482.402L516.876,482.502ZM515.457,425.009L515.981,423.491L515.71,422.458L514.385,422.718L513.556,424.1L514.204,425.265ZM520,376.844L518.759,377.749L515.872,379.232L513.614,380.382L512.307,380.243L514.296,377.965L513.357,377.959L510.69,379.62L509.162,381.028L508.751,383.232L508.401,386.924L509.674,387.813L512.064,392.529L514.775,394.443L514.358,396.451L513.772,398.019L512.227,399.432L510.796,398.501L509.994,398.536L509.546,401.737L511.082,410.026L513.185,415.854L515.147,418.303L519.557,422.125L520,422.307L520,492.825L520,492.825L512.207,485.156L509.281,481.58L503.36,477.765L499.546,471.961L496.492,469.919L492.162,468.31L491.176,468.539L489.897,469.225L488.907,469.353L488.123,468.627L488.864,467.808L489.769,467.433L489.4,465.199L484.375,459.451L481.447,457.679L480.661,456.502L480.019,454.922L479.391,453.939L478.016,453.322L476.885,453.496L475.289,453.13L475.308,450.289L475.566,448.142L475.303,446.305L473.707,441.555L470.934,437.524L469.277,427.849L467.97,425.134L465.046,423.088L458.498,420.877L449.441,414.674L447.523,414.581L442.068,412.15L438.683,411.746L434.327,413.863L428.964,419.837L424.523,426.006L422.946,427.23L417.335,429.285L412.327,430.188L412.284,428.595L412.16,427.398L413.004,426.072L414.444,424.557L415.741,422.592L416.284,421.209L416.079,420.26L415.512,418.858L414.7,418.743L410.017,419.793L408.914,419.471L405.481,417.6L401.848,415.219L400.491,413.591L400.02,411.987L400.417,410.954L400.151,409.952L399.454,408.59L400.158,407.069L401.385,405.164L402.007,403.889L402.968,403.567L403.428,402.784L402.78,399.586L402.356,399.078L401.709,398.663L400.689,398.585L398.956,397.89L397.676,396.759L397.429,395.261L396.816,393.851L395.694,392.475L395.665,391.083L396.922,390.377L398.739,390.382L399.964,390.715L402.857,388.51L403.877,388.338L404.832,387.866L405.635,384.758L406.309,383.831L406.467,383.289L405.905,382.63L403.724,380.34L402.704,378.029L401.191,375.455L399.715,374.272L399.454,373.37L399.415,372.228L399.801,371.296L402.495,369.833L404.187,368.191L404.187,368.191L404.814,368.852L406.3,369.585L410.259,368.734L412.71,367.893L414.517,366.937L415.586,367.156L419.423,368.661L420.722,367.937L423.537,366.042L423.98,365.006L426.157,361.908L426.237,361.165L425.336,359.17L425.625,358.777L428.347,356.774L429.712,355.002L431.14,353.824L432.132,353.832L432.413,354.231L432.548,355.075L432.381,358.496L432.8,359.54L434.919,362.034L436.409,363.43L439.901,364.385L440.042,364.882L439.109,366.714L441.249,368.952L441.605,370.54L442.608,371.483L443.97,371.037L444.399,370.144L443.898,368.656L443.468,367.068L443.54,366.175L443.968,365.133L444.895,363.694L447.524,360.317L448.443,358.43L448.646,355.404L448.638,353.024L449.485,352.426L451.328,352.863L451.894,352.811L452.186,354.297L452.98,356.622L453.911,357.806L454.908,358.097L456.116,358.087L459.014,356.621L460.924,356.005L461.99,356.141L462.642,357.125L464.097,359.684L464.883,359.921L465.804,359.61L466.153,359.208L465.783,358.222L465.396,356.095L464.804,354.417L464.085,353.684L463.929,352.644L464.329,350.854L464.802,349.31L465.785,348.899L466.982,348.682L468.492,350.244L470.269,350.759L471.61,350.635L471.804,349.689L471.714,348.649L470.913,347.375L471.016,345.34L471.861,341.605L472.359,341.893L474.327,341.903L476.511,342.054L477.882,343.56L479.231,344.024L481.205,344.124L482.467,343.892L483.086,343.331L483.811,341.526L485.083,339.259L487.225,338.106L490.863,337.746L492.742,337.287L494.635,337.272L496.049,337.57L497.518,337.467L501.242,335.788L505.109,334.39L505.677,334.565L505.766,335.008L505.104,335.928L504.455,337.196L505.005,338.611L507.301,341.342L508.591,343.469L509.861,345.05L511.66,345.812L514.012,346.248L515.995,346.35L518.14,346.839L520,347.142L520,376.844ZM472.853,456.316L473.555,457.399L473.644,458.045L473.203,458.801L473.461,460.441L471.614,459.079L468.97,459.822L467.374,459.697L466.901,458.508L467.269,457.755L469.768,457.566L470.596,457.203L472.114,457.326ZM457.272,513.345L458.387,515.187L460.901,522.722L461.154,524.322L460.698,526.03L460.077,527.188L457.657,531.018L458.081,534.172L458.973,536.119L459.153,538.274L458.699,540.986L457.318,557.463L456.616,560.382L456.151,562.899L454.459,563.714L452.191,562.873L449.439,561.478L448.147,561.582L446.856,562.088L445.805,561.637L444.755,560.834L444.031,566.515L442.734,568.828L440.867,570.284L439,570.381L437.135,569.872L435.593,569.866L434.382,568.803L433.42,566.887L431.978,564.515L430.463,561.74L430.32,559.276L430.122,553.8L430.533,552.598L431.184,551.448L431.522,548.99L431.298,546.831L431.783,546.081L432.658,546.84L433.3,546.593L433.227,545.489L433.479,543.483L432.292,541.77L430.381,541.204L430.236,539.448L430.409,537.694L431.452,536.549L431.781,535.047L431.893,530.337L430.48,528.623L430.026,526.014L429.328,524.355L428.081,522.641L426.675,521.276L425.743,519.964L425.623,516.509L426.125,513.612L426.608,512.416L427.077,512.57L428.475,514.035L429.65,514.345L431.923,514.713L434.203,514.277L436.955,512.99L439.625,511.447L443.465,506.8L445.808,505.898L447.055,504.646L447.441,502.995L448.453,502.593L449.628,504.188L451.111,504.332L453.381,505.62L454.327,506.914L455.197,508.409L455.984,509.053L456.848,509.447L457.007,509.795L456.306,510.151L455.535,511.908L456.009,512.405ZM431.808,565.771L430.491,568.627L429.129,566.605L429.063,564.845L429.31,564.344L430.922,565.111ZM427.975,508.777L427.258,510.071L426.242,509.96L426.643,509.014L427.6,507.073L428.779,506.434L429.242,506.988L428.685,508.134Z"/>
<path class="country" d="M127.351,100.804L127.083,101.607L126.107,100.28L125.792,99.07L122.643,97.689L124.266,96.981L124.895,97.452L127.229,98.105L127.751,98.752ZM179.31,78.408L176.374,79.651L175.877,80.255L174.513,82.86L174.283,83.625L173.148,84.903L171.979,86.326L170.967,86.763L169.463,86.936L168.598,87.252L167.722,86.799L166.49,86.571L165.729,86.96L165.688,87.409L165.927,87.974L166.81,88.939L167.88,89.895L167.632,90.451L166.848,90.937L162.389,91.657L160.929,92.393L160.374,92.929L160.527,94.138L163.052,98.185L163.503,98.645L163.603,100.656L166.3,102.13L167.206,103.607L168.154,104.072L170.358,104.459L171.136,105.139L171.741,104.916L172.175,104.349L174.362,103.097L175.169,102.508L175.026,101.46L174.773,100.642L176.217,99.378L177.893,98.163L178.586,98.363L179.563,99.539L180.233,101.004L180.143,102.002L180.165,102.769L180.787,104.477L181.264,105.137L182.796,105.765L183.027,106.423L182.262,108.599L182.345,109.378L184.062,109.738L185.87,109.961L186.452,110.132L187.194,109.829L188.301,109.549L189.634,109.974L190.136,111.141L190.225,112.224L188.968,112.324L187.703,111.861L186.969,112.421L186.649,113.674L186.785,115.427L187.379,116.766L187.487,119.578L187.489,122.62L187.961,124.592L187.697,126.819L187.359,127.865L187.144,129.849L186.645,130.457L186.511,132.355L186.829,136.37L186.831,138.548L186.212,143.183L185.129,144.787L183.829,146.195L182.763,148.004L181.848,149.995L180.848,153.335L177.832,156.819L176.709,157.6L175.471,158.002L177.312,161.218L175.077,162.074L172.898,162.026L170.696,160.855L169.268,160.604L167.716,161.237L167.109,161.666L166.739,161.282L166.353,158.867L165.176,161.049L163.662,161.484L161.412,160.843L157.451,160.634L155.821,160.984L154.978,161.864L154.215,162.963L153.446,163.503L152.679,163.738L149.517,163.94L148.873,164.201L147.01,165.811L144.96,166.512L143.396,166.508L142.353,165.096L141.953,164.291L141.425,163.761L139.363,163.381L139.902,163.864L140.154,164.737L139.979,166.326L139.382,167.764L138.22,168.256L137.008,168.124L134.721,169.214L132.073,169.042L130.361,170.161L121.451,170.543L121.016,170.435L119.992,169.518L118.81,168.968L117.521,168.851L113.708,169.322L112.043,168.593L115.053,165.828L118.384,164.877L118.814,164.473L117.873,164.033L112.142,163.81L109.967,164.328L107.976,164.122L109.238,162.809L112.237,161.379L113.789,160.7L114.75,160.535L115.917,159.553L118.855,158.811L109.82,159.53L107.752,158.636L107.459,157.74L105.65,157.627L105.537,155.547L108.755,153.262L110.55,152.395L112.5,152.182L114.4,151.645L115.319,150.601L114.622,150.013L109.536,149.007L107.216,148.145L107.59,147.218L108.354,146.29L111.255,145.15L112.67,145.209L113.839,145.716L114.886,146.446L115.641,147.305L118.546,147.635L117.668,146.235L118.084,143.834L117.368,142.832L118.793,142.069L120.239,141.72L122.996,140.011L123.869,139.872L128.309,140.416L133.205,140.392L138.212,139.866L136.068,138.38L135.21,136.896L132.794,138.913L131.297,139.517L127.48,139.086L126.4,138.511L124.945,137.38L124.327,137.532L123.698,137.988L120.983,138.531L118.365,138.172L121.882,136.762L126.55,134.048L127.695,133.055L129.404,131.333L129.258,130.376L128.607,129.651L132.351,126.131L133.489,125.645L135.265,125.927L136.749,125.574L137.289,125.705L137.827,125.58L139.271,124.602L137.72,123.409L136.09,122.551L130.48,121.626L129.787,121.351L129.166,120.786L128.881,120.151L128.885,118.617L128.6,118.238L127.348,117.922L126.046,118.054L125.164,117.778L124.489,116.941L126.226,115.845L124.586,115.069L122.787,114.916L121.412,114.101L121.648,113.187L122.537,112.442L121.87,111.347L121.978,110.195L123.062,109.91L123.961,110.346L126.244,110.059L128.889,110.321L126.893,108.994L126.178,108.094L126.389,107.02L126.788,106.199L129.777,105.318L132.65,105.376L132.668,104.305L133.17,103.304L130.486,102.269L127.582,102.351L128.405,100.355L129.518,98.69L129.942,97.516L130.156,96.185L128.732,96.386L129.024,94.511L128.819,93.124L126.726,93.51L127.219,91.84L128.042,90.82L129.17,90.545L130.099,91.04L131.85,91.487L133.832,91.015L136.39,91.453L140.358,92.697L142.49,95.884L143.299,95.621L144.8,94.298L145.361,94.281L149.354,95.959L151.725,97.443L152.498,97.319L152.488,95.529L151.897,94.111L153.386,92.777L154.98,92.029L156.04,91.716L158.299,91.529L159.321,91.102L160.434,89.216L161.757,87.734L156.318,87.387L151.852,84.231L152.999,83.022L154.238,82.447L156.183,82.243L156.528,81.558L157.545,81.133L159.424,79.886L159.392,77.681L160.044,76.197L161.376,75.435L162.061,74.061L162.769,73.101L165.044,73.218L167.393,72.736L168.118,73.004L170.645,73.323L171.42,73.906L171.584,72.105L173.179,72.259L173.677,72.728L173.693,74.007L174.2,74.988L174.069,76.387L173.37,77.354L172.435,78.012L172.944,78.993L171.509,80.254L172.864,79.894L174.875,78.759L175.086,77.531L175.132,75.96L174.916,74.484L175.481,73.028L176.673,72.272L179.25,72.329L178.591,70.399L179.541,70.454L180.499,71.021L181.638,72.696L182.911,74.042L184.345,75.216L182.423,76.586L180.335,77.306Z"/>
<path class="country" d="M520,234.413L519.346,235.801L516.374,236.508L516.101,237.515L515.572,238.684L515.193,238.952L513.797,238.578L511.889,238.426L510.875,239.121L509.584,239.531L508.019,239.704L506.375,241.02L504.703,243.277L503.87,245.248L503.374,245.963L502.444,244.219L501.34,242.976L500.592,242.363L499.936,242.39L499.817,242.692L499.856,243.633L500.577,245.19L501.475,246.193L501.64,246.98L502.227,248.392L503.546,249.922L505.578,251.072L506.954,252.249L508.025,253.935L508.048,254.43L507.816,255.135L507.382,255.799L507.026,256.708L505.977,258.491L506.342,259.218L507.314,260.116L508.164,261.217L509.246,263.001L510.8,266.2L511.799,267.49L513.136,268.813L514.391,269.791L516.26,269.646L518.373,271.569L520,273.459L520,300.181L520,300.181L517.582,301.765L516.072,303.082L515.121,304.667L515.166,305.558L517.011,308.044L519.144,310.662L519.266,312.988L518.463,314.815L518.291,315.519L518.925,315.734L520,315.774L520,322.454L520,322.454L518.261,321.672L516.892,320.7L516.308,320.134L516.271,319.392L516.523,318.883L515.991,317.967L514.291,317.208L512.582,317.687L511.294,318.293L510.464,318.332L509.527,317.531L508.116,316.95L506.233,316.636L505.109,316.238L504.843,316.497L505.056,318.273L504.744,319.08L495.785,320.471L493.046,321.509L491.146,322.812L489.637,323.406L489.315,324.209L487.887,325.245L486.228,325.592L485.802,325.307L484.772,325.782L482.977,326.278L481.791,326.161L481.214,325.383L480.071,324.173L479.563,323.293L479.619,322.747L477.05,322.709L475.439,322.051L472.045,322.32L471.207,322.039L471.074,322.339L470.585,325.867L469.986,327.364L468.898,328.871L467.519,329.736L466.406,329.903L466.459,328.812L466.716,327.47L465.876,327.185L464.691,327.054L464.129,326.666L464.254,325.673L463.968,325.082L463.472,324.395L462.21,323.52L459.697,322.212L457.956,321.537L457.27,322.237L456.028,322.992L454.083,322.759L453.6,323.06L453.6,323.06L450.259,320.949L446.998,318.879L445.96,318.882L441.185,319.328L441.047,319.129L440.289,317.939L439.529,317.59L439.114,317.787L438.767,318.133L438.283,318.032L436.149,316.14L435.322,315.888L434.078,316.128L432.689,317.109L432.058,318.343L432.19,319.087L432.949,319.39L434.888,319.205L435.164,319.405L435.231,319.801L435.021,320.197L433.426,320.533L433.007,320.976L432.521,321.121L432.243,321.169L430.584,320.659L428.091,320.635L426.071,321.504L422.809,321.808L418.445,321.542L416.862,320.869L415.9,320.455L415.244,318.559L415.507,315.69L416.612,311.945L416.939,309.177L416.49,307.434L417.157,304.771L418.93,301.285L420.084,297.589L420.76,293.736L421.615,291.173L423.201,289.414L427.055,284.51L427.397,284.118L427.29,281.64L426.283,281.282L424.81,280.52L421.052,279.574L417.562,278.969L415.961,278.245L414.587,276.335L413.715,276.268L412.021,276.924L409.86,277.32L408.391,276.888L407.381,276.962L406.835,277.295L406.573,276.991L406.214,275.346L405.42,274.879L404.222,274.499L403.413,274.625L402.854,275.402L402.031,275.972L401.231,275.751L398.999,271.966L398.423,271.105L398.247,270.356L397.757,268.952L396.332,267.567L394.946,267.074L394.273,267.199L394.401,265.469L395.02,263.013L395.596,261.744L396.363,260.73L397.118,260.012L397.295,258.68L397.27,257.44L396.415,257.213L394.262,256.197L393.04,255.162L392.16,253.891L391.034,252.163L390.57,250.46L390.571,248.725L390.797,247.991L390.883,247.449L391.968,244.862L395.467,242.56L395.223,240.172L395.21,238.685L394.394,237.714L392.775,237.259L392.342,236.598L392.172,235.898L393.464,234.508L392.01,233.264L391.405,232.052L389.447,230.488L389.209,229.933L390.42,225.568L389.694,224.25L388.814,223.571L387.728,223.229L387.237,222.564L387.137,221.865L387.349,221.428L388.569,221.627L388.975,221.197L392.106,218.74L392.253,218.25L391.878,217.938L391.305,217.768L391.197,217.218L391.226,216.475L392.973,212.822L393.545,211.257L393.651,210.12L393.628,209.028L392.734,207.258L391.893,205.837L391.937,204.698L391.323,204.079L389.595,201.034L389.641,199.895L390.692,199.043L392.174,198.556L392.7,198.08L393.536,197.814L395.852,198.742L396.84,199.57L397.165,199.383L398.081,198.621L399.726,198.825L403.71,197.313L404.304,196.537L404.772,195.708L404.845,195.362L403.374,193.731L403.329,193.135L403.539,192.447L403.996,191.964L404.892,191.594L405.921,190.929L408.12,189.005L408.858,187.288L409.158,185.46L409.258,184.024L408.659,182.917L408.113,182.207L407.296,182.284L405.73,182.191L404.308,181.504L403.524,180.488L403.363,179.59L403.755,179.056L403.901,178.365L403.672,177.663L403.813,177.122L404.453,176.645L409.07,176.824L409.396,176.286L409.777,173.616L410.998,169.626L412.171,167.371L412.379,166.433L412.446,161.072L412.696,158.346L411.928,157.037L410.303,155.605L410.746,152.685L411.354,150.465L413.073,147.675L414.432,146.961L420.297,146.634L426.698,146.932L429.336,151.137L428.331,153.311L429.853,154.321L430.654,153.982L431.224,152.1L431.611,150.018L432.167,149.377L434.172,150.982L434.899,152.031L434.876,155.457L435.641,150.843L435.112,147.561L435.498,144.434L436.36,142.75L437.095,141.71L441.771,142.868L446.998,142.268L448.948,143.503L453.437,149.587L454.913,150.568L456.812,150.848L454.231,149.581L448.761,142.212L447.178,141.274L444.688,141.03L443.109,140.285L442.14,139.141L441.898,138.147L441.968,130.69L441.006,129.595L439.804,129.194L439.081,129.689L437.576,129.733L437.283,128.041L437.65,126.749L440.714,125.914L442.694,124.773L442.815,122.734L441.501,121.141L440.015,118.252L438.238,115.459L438.073,112.273L441.159,112.332L441.931,112.483L446.564,113.973L447.697,115.015L449.125,115.059L451.735,114.049L453.693,113.637L454.411,114.228L455.484,114.467L455.722,114.465L455.845,114.961L458.234,115.732L459.261,116.913L460.417,118.74L460.573,121.424L459.162,123.333L457.978,124.541L462.526,124.033L463.022,125.12L463.701,126.303L466.146,125.416L472.403,128.77L476.147,126.987L477.106,126.862L478.024,129.673L477.136,132.532L473.891,135.647L474.724,137.516L475.763,137.888L478.901,137.407L483.924,139.097L484.937,138.517L488.844,134.107L490.381,133.156L495.662,132.253L496.558,130.573L498.594,128.844L499.897,126.994L503.035,123.365L506.42,123.848L508.43,124.393L510.666,124.624L512.846,128.191L518.071,131.928L520,131.665L520,234.413ZM520,126.184L518.281,126.287L517.348,128.882L516.512,129.031L513.438,126.914L512.955,125.795L512.786,124.908L513.026,121.657L512.912,120.667L513.747,119.524L513.777,117.928L515.289,116.148L516.715,116.015L517.274,117.378L517.988,118.332L520,119.11L520,121.976L520,121.976L519.741,122.562L520,123.239L520,126.184ZM481.576,125.641L478.998,125.766L478.006,124.649L476.979,124.378L477.48,122.922L478.184,122.405L480.665,123.279L481.498,125.046ZM432.049,115.567L431.686,116.161L431.903,112.081L433.716,107.815L434.484,107.921L433.707,109.06L433.463,109.855L433.154,111.495L433.265,112.342L437.419,112.618L436.94,113.362L432.718,113.831ZM436.678,117.74L436.019,118.433L434.469,118.324L433.579,117.67L433.883,116.976L434.72,116.434L435.376,116.339L436.446,116.694Z"/>
<path class="country" d="M453.625,458.049L453.12,462.239L453.508,463.483L454.274,464.375L454.662,465.32L455.354,476.537L455.207,477.436L452.623,481.994L452.091,483.295L451.967,488.938L451.511,490.438L450.589,491.941L448.979,496.743L447.509,498.896L443.543,496.253L441.215,495.152L440.132,493.901L439.359,493.05L439.826,491.902L440.912,490.755L441.068,489.807L438.597,488.752L437.441,488.049L437.445,486.851L438.3,484.957L437.92,483.358L436.533,483.452L435.379,483.197L435.307,482.349L436.081,481.304L437.163,479.961L437.092,478.464L435.867,477.81L434.722,476.556L434.272,474.908L435.197,473.765L436.578,473.023L435.592,471.323L434.828,471.269L434.295,470.917L434.757,470.122L435.833,468.93L437.449,465.397L439.586,463.759L443.39,462.667L444.454,462.218L445.365,460.971L446.427,460.172L447.642,460.269L448.858,460.714L449.543,461.26L450.149,460.709L450.598,459.162L450.288,457.818L450.424,454.081L451.094,451.985L452.226,451.83L453.215,453.02L453.146,454.017L453.539,456.455ZM416.862,320.869L414.481,322.112L413.973,323.242L413.039,324.71L411.497,325.321L410.033,325.486L408.787,325.259L408.106,324.648L408.189,324.105L407.575,323.643L405.979,323.603L404.285,324.6L402.918,326.248L403.31,327.2L404.556,327.482L404.825,327.836L404.812,328.331L404.378,328.915L403.864,329.892L401.199,332.793L398.523,335.688L398.076,336.567L397.285,337.187L393.939,338.665L393.567,339.297L393.265,341.965L392.837,344.183L390.301,346.127L387.826,348.12L387.144,349.335L386.665,350.755L385.822,352.41L385.648,353.247L386.797,354.73L386.612,355.864L386.192,357.536L384.938,358.678L383.633,359.272L383.559,361.105L384.262,361.381L385.834,361.294L388.16,360.091L389.646,358.409L388.851,356.792L388.72,356.489L388.948,356.101L390.783,354.43L392.874,353.461L395.855,353.361L399.379,354.065L399.726,354.323L399.482,355.407L399.79,357.004L400.397,358.113L399.451,361.261L400.065,362.222L401.028,363.44L401.782,364.553L402.897,365.576L403.854,367.239L404.187,368.191L402.495,369.833L399.801,371.296L399.415,372.228L399.454,373.37L399.715,374.272L401.191,375.455L402.704,378.029L403.724,380.34L405.905,382.63L406.467,383.289L406.309,383.831L405.635,384.758L404.832,387.866L403.877,388.338L402.857,388.51L399.964,390.715L398.739,390.382L396.922,390.377L395.665,391.083L395.694,392.475L396.816,393.851L397.429,395.261L397.676,396.759L398.956,397.89L400.689,398.585L401.709,398.663L402.356,399.078L402.78,399.586L403.428,402.784L402.968,403.567L402.007,403.889L401.385,405.164L400.158,407.069L399.454,408.59L400.151,409.952L400.417,410.954L400.02,411.987L400.491,413.591L401.848,415.219L405.481,417.6L408.914,419.471L410.017,419.793L414.7,418.743L415.512,418.858L416.079,420.26L416.284,421.209L415.741,422.592L414.444,424.557L413.004,426.072L412.16,427.398L412.284,428.595L412.327,430.188L411.2,430.663L411.132,430.313L410.691,430.055L410.315,430.196L410.01,430.538L409.922,431.134L407.513,432.125L405.773,433.129L399.027,439.275L395.899,441.076L395.265,442.152L394.6,444.224L392.739,445.959L391.055,446.751L387.109,447.512L383.046,449.256L381.343,448.392L376.669,448.252L373.907,445.839L368.409,444.142L366.768,440.723L364.303,440.402L362.649,440.417L361.7,439.87L361.46,438.711L361.517,437.617L359.769,438.024L358.421,437.951L357.574,438.354L356.947,438.818L356.218,438.429L355.76,438.553L355.799,439.203L354.142,439.26L352.442,438.763L347.98,436.753L347.322,436.464L344.222,435.622L342.996,434.846L342.062,433.04L341.274,432.491L340.849,432.114L337.884,432.764L336.748,434.034L335.07,435.516L323.575,442.418L321.303,445.44L318.595,450.026L318.272,452.199L318.701,459.332L320.691,463.237L320.927,464.155L319.633,464.056L317.541,463.392L315.836,462.706L314.215,462.876L312.553,463.541L311.07,463.869L310.069,463.936L309.351,464.276L308.971,465.145L308.84,465.785L307.101,465.487L303.102,463.84L299.531,462.62L297.235,463.413L295.778,464.231L294.803,463.99L294.206,462.983L293.767,461.94L292.403,460.96L289.267,459.307L289.557,458.684L290.174,457.842L290.227,457.296L289.622,456.436L286.756,455.255L285.414,454.922L284.446,455.426L283.69,456.102L282.301,453.206L281.224,452.545L279.421,452.259L277.47,451.205L275.466,449.941L270.522,447.704L269.113,447.349L268.559,447.539L268.067,448.537L267.527,451.335L267.262,451.657L264.835,451.485L261.936,450.755L260.555,450.797L259.348,450.657L258.308,449.733L253.149,450.025L252.373,449.479L251.323,448.047L250.019,446.834L249.026,446.21L248.203,445.455L247.387,445.254L246.11,445.697L244.349,445.727L242.926,445.497L242.161,445.5L239.337,441.922L238.996,441.024L237.378,440.562L235.435,440.256L230.688,437.56L228.523,436.109L228.312,435.427L228.38,434.934L227.993,434.981L227.191,435.826L226.715,436.515L226.171,436.59L225.512,436.398L224.901,435.861L224.528,435.256L225.114,434.331L226.032,433.202L226.596,431.873L226.686,430.679L225.529,429.713L223.716,429.108L222.39,428.82L220.703,427.876L219.881,427.256L219.336,425.77L219.403,424.773L222.862,424.412L226.408,421.242L231.081,408.681L235.227,393.645L237.068,390.987L239.069,390.405L237.824,388.132L236.741,389.038L236.225,390.121L235.636,390.642L238.627,376.764L240.116,371.705L242.198,366.526L244.706,369.013L246.713,371.48L247.683,373.559L248.384,380.007L249.295,381.476L250.865,382.978L250.397,381.467L249.309,380.226L248.59,371.624L247.75,369.113L246.22,366.91L241.069,361.968L240.613,361.055L240.542,359.443L242.455,359.751L243.987,360.758L243.891,359.844L243.518,358.843L243.264,355.355L243.693,347.354L243.949,345.988L243.893,344.279L242.109,343.687L240.716,343.396L239.256,342.544L232.195,336.791L230.303,331.608L228.102,327.679L227.707,326.017L228.009,324.458L229.88,321.377L228.944,319.085L227.826,318.519L226.942,317.335L228.164,315.763L229.091,314.748L230.652,314.678L232.665,315.373L234.456,316.634L235.872,317.087L231.837,313.8L224.467,313.605L222.934,313.022L221.715,312.234L221.534,310.201L222.701,309.477L223.848,307.948L222.99,306.664L221.686,306.013L219.553,305.733L217.511,305.765L217.139,305.004L218.588,303.376L217.669,302.529L216.247,302.656L214.208,302.683L212.379,301.838L210.935,299.497L209.775,299.308L208.915,299.419L207.816,298.435L206.552,298.026L205.625,298.123L204.593,296.746L197.582,293.094L194.44,292.248L191.33,292.808L189.761,292.177L188.817,290.399L188.323,287.693L183.951,284.837L185.136,283.694L187.35,283.793L190.014,283.316L191.159,282.363L189.448,280.648L188.028,280.04L187.51,279.443L187.117,278.163L188.097,277.737L188.649,278.138L190.363,278.648L193.442,278.894L192.583,277.484L191.425,276.976L190.94,276.587L188.549,276.006L187.328,276.238L184.879,275.59L184.517,274.163L184.522,273.006L185.715,270.657L189.666,269.061L198.858,268.129L202.539,269.118L205.287,269.135L208.682,268.15L210.245,267.005L214.844,266.96L218.821,269.058L221.925,275.017L223.522,277.122L228.57,274.693L235.401,275.818L236.552,277.79L237.305,276.398L238.838,274.82L239.731,275.75L240.112,276.906L247.345,277.63L248.528,277.494L246.757,275.948L245.641,272.69L246.888,261.412L245.342,257.992L243.808,252.669L243.177,249.576L243.261,248.537L243.802,247.114L246.558,247.56L248.608,248.251L252.846,247.692L254.713,248.748L254.266,251.036L254.459,254.061L254.999,255.534L255.773,257.288L259.106,257.584L262.564,258.987L267.057,259.713L273.426,262.201L276.337,261.555L279.299,259.862L284.629,259.133L285.172,258.497L282.154,258.45L279.52,256.846L279.358,255.38L279.833,254.19L281.225,251.461L289.649,247.837L295.392,247.069L301.5,245.221L304.714,242.96L307.014,239.805L307.737,239.18L308.584,238.616L307.917,237.356L309.682,224.787L310.487,222.576L311.768,220.809L313.647,219.547L316.374,218.213L326.096,216.904L327.583,216.187L327.662,217.536L328.223,219.325L328.594,220.301L328.102,221.502L328.337,222.567L329.476,224.502L330.95,226.365L332.282,227.618L332.748,227.507L333.81,227.295L335.715,226.304L337.297,226.08L338.074,226.986L338.489,227.515L339.311,229.565L339.416,231.61L339.744,233.324L340.473,234.075L343.322,234.535L345.427,235.333L345.975,235.918L346.427,239.725L346.781,240.296L347.401,239.893L347.966,239.336L348.692,239.287L349.918,239.619L351.615,239.784L353.291,240.292L355.508,242.619L355.398,243.307L354.859,244.514L354.599,245.49L354.967,245.91L355.562,246.941L355.354,248.119L354.642,248.917L354.4,249.596L354.371,250.041L354.547,250.4L355.055,250.73L358.523,251.394L361.782,251.144L363.896,250.076L364.296,248.859L364.97,247.458L366.223,246.289L367.1,245.941L367.861,246.479L366.265,251.45L367.118,252.787L367.144,254.723L367.449,256.427L368.577,256.438L369.952,256.809L370.912,257.504L372.054,258.555L373.665,259.579L374.845,259.935L375.204,260.746L376.158,261.685L377.534,263.586L378.808,264.885L379.474,264.915L380.762,264.478L382.639,264.263L384.102,264.376L384.662,265.341L386.112,265.798L386.562,266.213L387.136,266.881L388.061,267.165L389.271,266.965L390.106,266.105L391.254,265.752L392.382,265.942L393.031,266.461L394.273,267.199L394.946,267.074L396.332,267.567L397.757,268.952L398.247,270.356L398.423,271.105L398.999,271.966L401.231,275.751L402.031,275.972L402.854,275.402L403.413,274.625L404.222,274.499L405.42,274.879L406.214,275.346L406.573,276.991L406.835,277.295L407.381,276.962L408.391,276.888L409.86,277.32L412.021,276.924L413.715,276.268L414.587,276.335L415.961,278.245L417.562,278.969L421.052,279.574L424.81,280.52L426.283,281.282L427.29,281.64L427.397,284.118L427.055,284.51L423.201,289.414L421.615,291.173L420.76,293.736L420.084,297.589L418.93,301.285L417.157,304.771L416.49,307.434L416.939,309.177L416.612,311.945L415.507,315.69L415.244,318.559L415.9,320.455ZM241.695,355.744L240.651,358.105L239.681,355.67L238.186,353.411L238.083,351.544L238.151,351.053L240.021,352.662Z"/>
<path class="country" d="M501.132,85.616L501.268,88.505L500.9,89.37L500.343,89.945L498.736,90.568L497.373,91.477L496.151,92.976L495.829,95.035L496.831,96.488L498.683,97.205L499.282,100.07L497.815,101.531L494.107,103.085L493.832,106.485L494.059,109.166L494.078,111.109L493.89,113.806L490.846,115.121L488.675,111.117L488.616,109.475L487.897,107.608L487.779,105.968L486.979,103.405L484.01,102.809L482.888,102.745L481.311,103.243L480.953,103.104L478.906,99.577L479.145,95.632L478.093,93.668L477.893,92.776L477.923,91.778L477.084,91.004L476.022,90.583L475.498,88.403L476.647,87.824L479.448,87.994L480.316,87.818L481.059,87.347L483.208,83.637L483.124,82.841L483.322,81.787L485.739,81.306L486.889,82.663L486.796,84.962L487.014,87.798L488.556,88.54L489.143,88.668L489.645,86.504L490.07,85.44L490.627,84.819L490.784,82.867L490.39,81.684L489.605,80.866L492.284,78.315L495.09,76.301L496.756,76.129L498.448,76.502L500.035,77.079L500.926,77.586L501.43,78.461L500.491,80.653L500.256,81.813ZM455.722,114.465L455.484,114.467L454.411,114.228L453.693,113.637L451.735,114.049L449.125,115.059L447.697,115.015L446.564,113.973L441.931,112.483L441.159,112.332L438.073,112.273L437.906,109.883L437.559,108.188L436.508,105.643L438.105,105.054L437.833,100.072L437.258,97.478L432.883,94.807L429.401,92.23L430.312,83.564L430.684,81.273L429.406,76.719L429.64,71.48L430.247,63.296L431.334,62.958L432.131,63.016L435.142,64.539L436.397,64.697L437.246,66.001L438.272,66.555L439.021,65.16L439.315,62.763L441.713,59.671L443.418,58.523L444.554,57.973L445.691,59.22L446.604,60.618L446.823,57.569L447.484,51.717L445.224,50.772L443.362,51.574L441.55,55.272L439.893,59.967L437.219,60.355L435.105,61.691L433.181,60.277L431.941,59.067L431.958,57.317L432.252,56.22L434.492,52.44L437.561,48.808L440.546,48.869L442.744,47.722L444.094,47.572L448.147,47.813L450.281,47.003L452.124,45.289L456.147,38.195L458.398,35.214L462.946,34.095L467.105,30.611L468.324,30.535L466.377,33.131L466.062,34.089L465.869,35.596L467.328,38.872L467.089,40.88L467.28,44.781L465.971,46.858L464.474,51.238L463.808,51.9L463.781,56.951L463.972,58.197L463.823,62.798L465.454,64.667L467.129,65.635L472.783,65.46L473.374,66.245L474.154,67.674L473.7,70.133L473.114,71.945L471.541,73.531L469.438,74.726L468.116,74.803L466.29,72.643L465.44,73.357L464.598,74.521L463.198,80.483L462.567,84.534L462.224,84.888L461.345,84.303L459.894,84.273L458.107,85.244L459.046,86.08L460.054,87.563L459.657,88.316L458.037,89.134L456.656,90.745L456.027,91.998L454.23,93.46L453.134,95.314L453.68,97.601L453.931,99.592L454.48,101.829L454.024,103.576L451.801,106.133L450.988,108.379L452.881,108.316L454.127,108.804L454.843,109.445L455.563,110.384L455.1,111.534ZM470.154,91.722L470.887,93.202L471.779,96.372L473.213,99.926L472.66,101.434L473.117,103.317L472.753,105.368L470.205,107.716L467.192,107.877L464.098,106.837L459.697,104.711L459.328,103.52L458.73,102.88L457.51,99.208L457.517,94.623L459.674,94.049L464.375,91.834L465.431,92.115L466.62,93.24L467.965,93.264L469.801,91.63ZM482.411,112.026L485.438,113.72L487.395,113.553L488.728,114.203L489.126,115.334L489.338,117.866L487.934,118.663L486.374,118.468L484.258,119.485L477.162,115.564L477.188,112.128L477.389,110.778L480.698,110.335ZM472.178,116.336L471.467,116.501L470.405,114.235L470.27,113.491L471.425,111.972L472.098,110.264L473.99,107.629L475.036,104.564L475.45,104.604L475.048,107.354L472.681,114.93ZM501.886,109.122L501.315,109.598L498.753,109.365L495.995,111.478L494.902,110.925L495.264,109.615L495.541,109.155L496.465,108.568L497.081,107.744L497.264,106.49L497.885,107.161L499.67,107.331L500.515,107.691L501.253,108.255ZM502.963,90.969L501.503,92.236L501.15,92.203L500.546,90.535L501.315,89.5L501.741,88.632L502.09,88.615L502.602,89.539ZM468.015,113.637L466.891,113.957L465.633,113.382L463.515,111.029L463.269,110.435L464.342,110.816L465.728,112.037L466.8,112.266L468.305,113.282ZM460.988,112.66L459.272,113.081L458.432,112.394L456.767,112.164L456.188,107.739L456.304,107.489L457.135,107.779L459.941,109.787L460.92,112.014ZM469.464,86.751L469.185,87.305L468.185,86.777L468.032,84.935L468.345,83.232L467.909,81.745L468.353,80.788L469.848,83.001L470.277,84.04L469.781,85.297ZM475.524,44.335L474.868,45.004L472.711,44.108L473.631,42.783L475.967,42.07L477.317,42.233L475.841,43.626Z"/>
<path class="country" d="M520,273.459L518.373,271.569L516.26,269.646L514.391,269.791L513.136,268.813L511.799,267.49L510.8,266.2L509.246,263.001L508.164,261.217L507.314,260.116L506.342,259.218L505.977,258.491L507.026,256.708L507.382,255.799L507.816,255.135L508.048,254.43L508.025,253.935L506.954,252.249L505.578,251.072L503.546,249.922L502.227,248.392L501.64,246.98L501.475,246.193L500.577,245.19L499.856,243.633L499.817,242.692L499.936,242.39L500.592,242.363L501.34,242.976L502.444,244.219L503.374,245.963L503.87,245.248L504.703,243.277L506.375,241.02L508.019,239.704L509.584,239.531L510.875,239.121L511.889,238.426L513.797,238.578L515.193,238.952L515.572,238.684L516.101,237.515L516.374,236.508L519.346,235.801L520,234.413L520,273.459Z"/>
<path class="country" d="M358.48,210.192L359.845,210.972L361.053,211.196L361.648,210.934L361.369,209.18L362.447,208.351L363.56,207.971L364.027,208.744L365.007,209.546L365.836,209.644L368.123,207.788L368.548,208.209L369.021,208.931L369.054,209.478L369.15,210.079L369.584,210.352L371.318,210.346L372.208,209.302L372.948,208.646L373.434,209.168L373.623,210.468L373.981,212.224L375.936,214.258L377.643,214.889L379.782,214.594L380.633,214.287L381.197,214.611L381.663,215.674L382.833,216.868L385.37,217.823L386.188,218.304L386.67,219.118L386.493,220.251L385.149,222.972L384.919,223.805L385.102,224.061L384.82,224.594L383.121,226.355L382.961,227.042L383.433,228.104L383.848,229.015L384.803,229.503L385.706,229.69L387.392,229.81L389.209,229.933L389.447,230.488L391.405,232.052L392.01,233.264L393.464,234.508L392.172,235.898L392.342,236.598L392.775,237.259L394.394,237.714L395.21,238.685L395.223,240.172L395.467,242.56L391.968,244.862L390.883,247.449L390.797,247.991L390.669,247.887L390.306,247.03L389.649,247.005L388.284,246.554L386.145,248.896L385.14,250.837L384.549,252.299L383.706,253.453L383.52,254.684L383.563,255.231L383.268,255.913L383.238,256.605L384.305,258.039L384.603,258.845L385.894,261.378L385.389,262.298L385.018,263.225L384.587,263.95L384.102,264.376L382.639,264.263L380.762,264.478L379.474,264.915L378.808,264.885L377.534,263.586L376.158,261.685L375.204,260.746L374.845,259.935L373.665,259.579L372.054,258.555L370.912,257.504L369.952,256.809L368.577,256.438L367.449,256.427L367.144,254.723L367.118,252.787L366.265,251.45L367.861,246.479L367.1,245.941L366.223,246.289L364.97,247.458L364.296,248.859L363.896,250.076L361.782,251.144L358.523,251.394L355.055,250.73L354.547,250.4L354.371,250.041L354.4,249.596L354.642,248.917L355.354,248.119L355.562,246.941L354.967,245.91L354.599,245.49L354.859,244.514L355.398,243.307L355.508,242.619L353.291,240.292L351.615,239.784L349.918,239.619L348.692,239.287L347.966,239.336L347.401,239.893L346.781,240.296L346.427,239.725L345.975,235.918L345.427,235.333L343.322,234.535L340.473,234.075L339.744,233.324L339.416,231.61L339.311,229.565L338.489,227.515L338.074,226.986L337.297,226.08L335.715,226.304L333.81,227.295L332.748,227.507L332.282,227.618L330.95,226.365L329.476,224.502L328.337,222.567L328.102,221.502L328.594,220.301L328.223,219.325L327.662,217.536L327.583,216.187L335.748,212.041L340.617,209.937L342.913,209.365L343.241,211.874L343.631,212.698L344.107,213.23L344.806,213.381L345.619,212.844L346.82,212.285L348.594,212.709L349.899,213.397L350.308,214.021L351.166,214.676L352.376,214.908L354.956,213.937L357.439,212.41L358.155,211.263Z"/>
<path class="country" d="M520,315.774L518.925,315.734L518.291,315.519L518.463,314.815L519.266,312.988L519.144,310.662L517.011,308.044L515.166,305.558L515.121,304.667L516.072,303.082L517.582,301.765L520,300.181L520,315.774ZM520,347.142L518.14,346.839L515.995,346.35L514.012,346.248L511.66,345.812L509.861,345.05L508.591,343.469L507.301,341.342L505.005,338.611L504.455,337.196L505.104,335.928L505.766,335.008L505.677,334.565L505.109,334.39L501.242,335.788L497.518,337.467L496.049,337.57L494.635,337.272L492.742,337.287L490.863,337.746L487.225,338.106L485.083,339.259L483.811,341.526L483.086,343.331L482.467,343.892L481.205,344.124L479.231,344.024L477.882,343.56L476.511,342.054L474.327,341.903L472.359,341.893L471.861,341.605L471.913,340.662L471.105,338.794L469.762,338.224L466.522,341.798L465.613,342.109L462.929,341.205L460.594,339.747L460.371,338.659L459.939,337.722L457.969,336.9L455.583,336.376L454.812,336.382L455.088,335.835L455.361,334.94L455.146,334.248L454.581,333.509L454.295,332.718L454.22,331.926L454.006,331.333L453.932,330.739L453.72,330.294L453.72,330.294L455.295,326.813L455.556,324.68L454.157,323.403L453.6,323.06L454.083,322.759L456.028,322.992L457.27,322.237L457.956,321.537L459.697,322.212L462.21,323.52L463.472,324.395L463.968,325.082L464.254,325.673L464.129,326.666L464.691,327.054L465.876,327.185L466.716,327.47L466.459,328.812L466.406,329.903L467.519,329.736L468.898,328.871L469.986,327.364L470.585,325.867L471.074,322.339L471.207,322.039L472.045,322.32L475.439,322.051L477.05,322.709L479.619,322.747L479.563,323.293L480.071,324.173L481.214,325.383L481.791,326.161L482.977,326.278L484.772,325.782L485.802,325.307L486.228,325.592L487.887,325.245L489.315,324.209L489.637,323.406L491.146,322.812L493.046,321.509L495.785,320.471L504.744,319.08L505.056,318.273L504.843,316.497L505.109,316.238L506.233,316.636L508.116,316.95L509.527,317.531L510.464,318.332L511.294,318.293L512.582,317.687L514.291,317.208L515.991,317.967L516.523,318.883L516.271,319.392L516.308,320.134L516.892,320.7L518.261,321.672L520,322.454L520,347.142Z"/>
<path class="country" d="M289.267,459.307L288.717,459.454L286.632,460.403L285.53,460.695L284.442,460.837L283.692,460.662L283.306,459.922L283.487,458.887L283.354,457.922L283.328,457.418L283.69,456.102L284.446,455.426L285.414,454.922L286.756,455.255L289.622,456.436L290.227,457.296L290.174,457.842L289.557,458.684Z"/>
</g>
<g class="map-markers"></g>
</svg>
