<svg xmlns="http://www.w3.org/2000/svg" viewBox="0 0 1000 720" class="footprint-map" role="img" preserveAspectRatio="xMidYMid meet">
<g class="land">
<path class="country" d="M859.953,179.786L860.696,179.592L864.396,178.579L870.955,176.835L877.563,175.045L884.105,173.241L890.685,171.351L897.268,169.472L903.785,167.578L910.339,165.599L910.556,160.764L911.417,158.313L913.532,158.408L914.577,158.006L915.448,156.624L916.2,155.664L916.853,155.594L917.647,156.385L918.301,156.918L918.747,156.566L918.919,155.523L918.534,154.263L918.829,153.226L919.51,152.845L920.194,152.677L920.398,152.141L920.148,151.529L919.621,150.614L919.314,149.417L920.348,146.816L921.918,144.78L922.367,143.865L922.137,142.342L922.84,140.486L923.126,139.449L923.004,138.668L922.432,137.813L921.948,136.069L921.673,133.829L921.403,131.416L921.812,129.048L922.871,126.26L922.384,123.183L921.834,119.913L922.957,116.241L924.219,112.093L924.899,109.721L926.145,105.401L927.016,102.362L927.502,100.912L927.976,99.25L929.506,99.183L931.102,99.135L931.537,101.192L932.279,102.545L933.196,103.15L934.362,103.415L935.184,103.36L936.104,103.057L938.108,101.14L940.669,99.466L942.012,98.281L942.06,97.53L942.681,97.061L943.878,96.875L946.517,97.756L949.762,99.338L952.301,100.594L953.54,103.855L954.724,107.311L956.043,110.982L957.003,113.605L958.228,117.18L959.269,120.038L960.604,123.752L961.352,125.756L961.828,126.245L961.929,127.079L961.953,127.506L962.115,127.798L962.358,128.15L962.503,128.752L962.443,129.295L962.478,129.935L962.811,130.908L963.287,131.397L963.836,131.557L964.222,131.424L964.784,131.623L965.661,132.017L966.775,132.199L967.836,132.05L968.459,131.703L969.395,131.727L970.023,132.467L970.128,133.302L969.765,133.864L969.361,134.309L969.466,134.969L969.959,135.496L970.535,135.906L971.261,136.743L971.391,137.656L971.246,138.491L971.336,139.288L971.885,139.795L973.015,140.361L973.8,141.004L974.727,141.161L975.007,140.714L975.136,140.189L975.361,139.762L975.984,139.762L976.732,139.762L977.55,139.781L977.684,140.519L978.524,141.49L979.637,143.588L979.49,144.774L980.066,146.057L981.653,145.935L982.125,146.206L982.359,146.691L980.374,151.232L977.51,151.665L976.378,153.105L974.944,153.863L974.809,155.654L974.074,156.257L972.91,156.527L971.751,156.445L971.1,156.929L970.965,160.025L969.983,160.099L969.991,161.228L969.686,161.811L969.128,162.393L968.153,161.374L967.362,160.336L966.775,160.274L965.937,160.209L965.204,160.456L964.763,160.823L964.393,161.774L963.7,162.702L962.852,162.422L962.043,161.693L962.063,163.251L961.881,164.964L962.569,166.647L962.626,167.758L961.911,167.692L960.989,167L959,166.878L957.597,167.386L957.57,166.353L958.474,164.533L957.931,164.409L957.374,164.811L957.026,164.709L957.064,163.307L956.667,161.918L956.258,162.575L955.946,164.284L954.58,166.036L955.267,167.937L954.876,172.492L955.371,174.196L954.725,175.882L953.684,177.523L951.687,177.781L950.591,179.263L950.215,180.641L949.65,181.04L948.884,179.64L948.46,179.3L948.639,181.625L948.175,181.947L947.442,180.449L946.887,179.501L946.433,180.642L946.659,183.125L946.081,183.093L945.691,182.265L945.203,182.117L945.402,183.137L946.024,184.497L945.975,185.336L945.392,185.088L944.663,184.584L943.966,185.368L943.225,185.819L943.014,185.15L942.912,184.23L941.514,185.191L940.161,187.304L939.345,189.938L939.974,190.13L940.759,190.619L939.258,194.721L937.647,198.507L937.176,203.968L936.545,204.81L936.173,205.875L936.325,209.068L936.308,211.925L937.138,212.966L937.793,214.062L938.917,215.013L939.597,214.933L940.18,214.538L940.718,214.415L941.169,214.838L941.235,215.466L940.522,215.859L939.316,217.354L938.159,218.183L937.901,219.645L937.408,221.394L936.223,224.259L937.205,224.738L940.39,224.63L941.94,225.062L945.271,228.749L944.92,229.29L944.986,230.135L947.101,230.693L948.587,233.607L950.399,234.213L952.729,234.179L955.097,232.398L956.888,230.446L956.493,229.401L954.318,227.444L953.663,226.393L952.366,225.978L952.211,226.72L951.303,226.095L951.037,225.659L951.623,225.258L952.354,225.115L953.315,225.29L956.271,227.261L957.971,230.58L958.848,232.731L958.848,233.554L958.146,233.603L957.011,234.135L951.676,237.062L950.735,238.437L948.163,240.444L947.814,239.946L947.652,238.785L946.756,236.509L946.126,236.573L942.828,241.732L941.113,242.512L940.018,244.053L939.469,243.528L938.382,240.79L938.546,238.107L938.082,238.29L936.966,240.181L936.05,239.507L935.467,238.646L934.826,238.234L934.232,238.196L935.276,240.17L934.738,242.057L935.671,246.265L934.864,248.361L931.111,250.637L928.345,251.192L926.051,252.249L923.102,253.966L921.223,253.992L919.661,255.343L913.536,257.343L912.149,257.261L910.899,259.286L908.513,260.982L902.774,266.339L901.62,268.069L900.403,270.541L899.42,271.964L898.545,272.586L898.174,273.628L897.666,274.407L897.737,272.247L898.003,270.334L897.726,266.897L896.833,264.312L895.806,263.39L894.888,262.867L896.444,265.274L897.426,268.434L897.628,270.392L896.964,274.467L896.459,275.501L895.87,276.472L895.346,276.954L894.896,277.716L894.47,278.813L894.337,280.774L895.15,282.355L898.551,282.089L899.328,281.324L900.078,282.407L900.774,284.018L901.012,285.88L900.943,287.826L901.124,290.217L901.737,293.734L902.017,296.998L901.698,296.056L901.001,292.219L900.554,292.767L900.42,293.744L900.722,298.841L900.053,301.801L899.228,303.944L897.852,304.008L898.542,305.365L898.36,306.183L898.46,307.824L897.925,309.076L897.147,309.153L896.278,310.15L896.041,310.767L896.25,311.824L895.805,312.923L894.42,318.366L892.591,320.333L891.976,320.278L892.024,317.876L891.811,315.497L890.189,314.89L888.745,314.706L887.319,315.114L885.185,313.78L882.739,313.036L878.942,310.325L878.763,309.347L878.289,307.718L878.524,304.974L878.937,302.951L879.882,301.732L883.113,299.93L883.61,298.267L883.796,296.939L882.599,299.464L880.236,300.79L879.067,301.895L878.244,303.339L877.997,304.978L876.949,307.116L877.364,308.248L877.824,309.028L878.141,310.824L879.507,312.315L882.085,314.65L883.499,318.941L885.669,321.462L888.73,324.31L890.672,324.838L891.063,326.103L890.84,328.379L890.014,329.613L891.349,329.059L892.102,329.378L893.174,330.938L893.625,332.7L893.629,333.765L893.353,334.263L893.096,333.262L892.688,332.982L892.359,333.536L892.176,334.137L892.55,336.131L892.489,337.213L891.421,337.784L890.888,340.733L890.184,342.488L888.421,353.538L888.97,355.189L888.341,355.942L887.234,356.686L886.265,357.99L885.763,359.263L885.726,362.421L885.14,366.138L883.893,364.956L883.34,363.816L883.032,360.617L883.308,355.105L884.188,351.526L885.16,349.71L885.422,346.409L883.965,346.261L881.937,346.806L881.972,345.308L882.237,343.923L880.912,342.931L880.238,342.927L879.484,342.602L879.989,341.371L880.039,340.21L879.512,338.892L879.581,337.811L879.051,338.112L878.493,339.399L878.085,339.925L877.541,339.079L877.21,339.373L877.114,340.078L876.631,340.579L875.274,339.975L873.381,339.372L872.012,337.875L871.175,336.632L871.087,334.06L872.127,333.382L873.731,333.374L875.689,332.896L875.308,332.436L874.633,332.686L872.071,331.226L871.085,330.19L869.872,330.144L869.649,331.431L869.149,331.849L869.241,329.191L870.157,328.841L871.376,327.822L870.647,326.468L869.611,326.039L868.233,327.223L867.981,326.178L867.984,324.817L869.178,324.528L870.28,324.685L870.651,322.383L870.479,321.404L869.305,323.136L868.28,320.279L869.017,317.037L870.088,315.456L871.784,315.083L873.482,314.453L872.293,314.192L871.1,314.187L871.635,312.864L872.334,312.479L872.782,311.346L871.129,311.881L870.862,309.988L870.142,310.548L869.195,310.993L869.008,311.847L869.394,313.158L869.35,314.062L868.715,314.983L867.593,315.809L867.244,314.915L866.7,314.579L866.999,316.633L866.852,317.392L865.458,315.73L865.242,316.207L865.431,316.715L865.404,317.7L864.707,318.378L865.05,319.528L864.891,320.247L862.02,319.872L862.034,320.208L864.077,322.1L865.317,322.568L865.732,323.744L865.031,324.975L863.573,324.431L863.331,324.531L864.378,325.854L865.136,327.075L864.955,328.266L865.335,329.577L865.561,330.799L865.495,331.919L867.291,336.632L868.369,337.776L869.438,338.879L870.099,339.953L869.386,340.337L867.876,339.636L866.626,339.17L864.73,337.115L864.248,336.211L863.75,335.522L864.351,337.206L865.253,339.03L870.405,342.344L871.574,343.848L872.457,344.995L872.63,346.271L871.335,345.648L870.11,344.753L867.386,344.045L864.089,344.02L861.609,341.463L861.965,342.696L861.766,343.846L860.448,342.797L859.495,341.874L858.968,340.767L857.717,341.143L856.555,342.474L855.101,342.556L854.509,340.572L854.575,339.412L855.517,336.563L856.663,334.896L856.91,333.098L856.056,330.581L856.414,333.257L855.902,334.776L854.861,336.036L853.562,338.203L853.562,339.942L853.768,343.16L854.699,344.006L855.464,344.126L857.466,342.941L858.685,342.997L862.022,346.078L866.958,346.483L868.898,346.997L870.761,348.591L873.063,349.184L875.046,350.405L875.373,351.474L875.089,352.818L875.305,354.55L874.863,355.805L873.226,356.326L872.198,356.275L865.419,351.645L864.648,351.233L861.942,348.601L859.262,347.487L858.57,347.691L862.6,349.974L864.442,351.791L867.52,354.248L869.49,355.138L871.25,356.842L872.625,357.49L876.15,358.043L875.227,359.286L877.219,359.654L877.835,361.077L878.051,362.81L875.452,362.758L875.687,364.018L876.054,364.694L875.168,365.544L873.43,365.111L868.426,361.504L868.632,362.092L869.125,362.739L872.065,365.097L874.484,366.387L876.418,366.772L878.121,367.891L878.786,368.665L879.439,369.951L878.683,371.068L877.645,371.871L876.323,371.211L875.317,370.434L873.189,369.244L872.233,367.519L870.971,367.946L865.004,366.89L860.553,367.627L861.117,368.006L861.707,368.208L865.323,367.961L866.987,368.674L870.055,368.969L871.79,368.813L873.198,371.576L875.932,373.003L876.612,374.411L878.269,374.183L880.704,372.066L882.642,372.147L885.327,371.916L886.204,372.976L887.2,375.069L888.729,377.37L893.574,386.628L899.185,393.815L899.985,395.06L898.832,394.073L894.812,389.38L892.357,385.909L889.178,379.469L888.348,378.059L887.671,377.545L887.475,378.146L887.551,379.02L887.979,379.637L887.945,382.025L888.461,383.003L889.629,383.821L891.398,386.231L893.128,389.585L891.596,388.434L890.167,387.979L888.126,387.842L886.239,387.199L886.666,388.666L886.926,390.301L885.501,390.138L884.459,389.839L885.652,391.332L883.824,391.223L882.741,391.611L882.387,393.309L881.625,394.467L880.184,395.109L877.696,394.26L876.575,392.745L875.866,390.921L876.258,393.159L877.203,395.394L877.48,397.151L879.667,397.013L881.56,396.221L884.204,395.671L885.832,394.938L886.745,394.122L889.353,393.996L890.069,396.071L890.316,398.218L890.667,400.509L891.39,400.332L892.003,399.418L891.415,395.317L893.344,393.27L894.16,393.196L895.198,394.298L895.778,395.514L896.488,397.25L896.571,400.117L893.87,404.18L892.087,407.757L890.911,408.679L888.982,408.808L886.682,408.558L885.652,408.636L884.916,409.067L884.176,408.312L883.509,406.692L882.516,406.336L881.941,406.558L881.898,408.432L880.104,409.408L877.212,409.286L874.087,408.451L875.653,409.779L883.304,411.105L884.233,411.476L885.153,412.103L884.465,413.623L884.079,415.24L884.214,416.394L884.12,417.178L881.783,419.764L880.167,419.765L875.502,417.218L878,419.808L879.689,420.723L882.714,420.729L887.771,418.339L889.799,419.164L888.854,421.678L887.809,423.495L885.989,424.142L884.415,424.939L884.194,426.091L883.011,426.456L881.216,426.921L878.36,427.674L876.765,427.791L875.058,430.468L874.319,430.934L873.021,430.81L872.156,429.192L871.428,428.472L872.163,431.682L872.566,432.519L873.116,433.069L870.959,435.377L868.963,438.109L868.225,438.908L867.459,440.22L866.138,443.804L866.11,446.213L865.939,448.948L865.612,447.799L865.317,445.842L864.285,443.755L864.849,447.885L864.456,449.952L857.042,451.455L854.071,453.15L849.782,457.684L848.608,459.53L845.739,466.222L845.433,470.23L844.276,468.793L844.239,467.584L844.038,466.619L843.437,468.883L845.101,471.725L844.442,473.036L842.143,475.776L840.696,476.409L839.107,477.404L838.983,479.608L837.107,482.04L835.974,483.19L833.383,483.167L834.514,484.865L833.905,486.493L832.53,487.897L830.734,489.006L829.61,489.145L828.78,489.684L828.199,490.76L826.561,491.958L824.524,491.854L822.387,491.975L821.231,492.698L823.408,493.156L824.761,494.189L824.872,495.879L824.433,496.591L823.351,497.718L822.77,497.705L822.268,496.967L821.541,495.436L820.984,495.919L821.054,496.657L820.551,497.045L818.32,494.8L818.765,496.76L819.676,498.131L820.449,498.776L821.098,499.153L821.438,499.797L820.506,501.727L819.955,502.25L818.891,502.744L818.391,503.923L818.768,504.769L818.162,506.926L816.009,508.582L815.301,508.673L814.738,509.153L815.254,509.973L816.005,510.499L816.041,511.076L815.56,511.999L814.411,512.463L813.881,513.519L814.249,514.325L814.761,514.73L814.848,515.588L813.52,516.667L813.395,517.564L814.144,517.675L814.592,517.343L815.044,517.425L814.453,518.95L813.834,519.938L813.404,521.557L811.792,522.312L811.951,522.782L812.95,523.055L814.006,524.025L812.843,526.443L811.894,526.451L811.239,526.072L811.195,527.826L811.498,528.685L811.482,530.6L811.318,532.915L811.053,533.877L811.431,535.552L812.016,537.148L813.323,539.068L816.327,547.399L817.804,550.196L821.009,557.896L825.412,565.114L831.309,573.736L840.247,583.778L841.359,585.218L840.751,586.783L840.728,588.234L841.069,590.4L841.689,592.429L842.988,594.822L845.361,598.41L844.324,597.785L840.97,592.65L840.049,589.439L839.517,584.705L839.029,584.923L838.881,586.522L838.998,588.319L838.55,589.148L837.226,586.591L837.063,585.341L837.592,583.751L837.274,583.275L835.823,582.807L835.31,581.706L835.236,580.521L834.393,580.061L833.817,580.211L834.713,582.936L835.696,584.527L837.292,588.521L839.017,590.794L840.148,592.726L853.19,613.34L855.832,615.787L856.976,617.662L858.637,621.74L859.873,627.175L860.429,637.428L861.39,644.26L861.201,644.092L860.909,643.411L860.517,643.406L859.917,646.725L858.73,649.87L858.975,654.331L858.648,656.688L856.587,659.464L855.06,659.718L851.583,662.145L848.837,662.218L845.825,663.808L843.747,664.075L842.145,662.249L842.204,661.298L842.484,660.264L843.283,659.911L846.421,661.53L846.782,660.521L845.745,659.613L844.038,659.32L842.697,658.875L839.425,654.371L836.304,651.47L835.435,649.297L830.949,648.684L827.472,647.143L824.766,643.78L822.46,637.392L820.974,636.877L820.282,636.467L821.195,633.764L822.257,631.483L821.226,632.2L820.536,633.102L819.803,635.077L819.102,635.488L818.377,635.329L816.944,632.015L816.412,627.679L817.252,625.889L815.521,626.112L813.914,627.05L814.389,628.444L814.304,629.279L812.915,629.275L811.86,628.966L810.327,627.673L807.973,625.167L802.981,617.935L802.055,616.984L800.596,616.04L801.129,615.58L802.128,615.165L803.904,611.248L805.386,608.774L805.797,607.182L805.539,606.568L804.568,605.79L803.671,606.766L803.119,606.655L801.617,604.978L800.347,604.659L799.602,605.197L800.746,606.565L801.58,606.999L801.665,609.287L801.491,610.056L800.858,610.82L799.686,610.649L799.262,611.295L798.494,610.808L797.667,609.961L796.659,608.487L797.068,599.167L797.86,593.106L796.974,586.54L796.957,585.554L796.512,583.815L793.469,580.453L781.391,572.92L771.526,563.235L763.881,560.175L758.685,561.915L757.947,562.892L757.671,564.006L758.22,565.201L757.792,565.801L756.334,565.937L754.496,566.499L749.853,570.146L748.023,570.287L746.539,571.283L745.386,572.024L742.312,572.79L739.71,573.772L738.503,573.61L737.542,572.016L737.302,570.28L738.067,571.532L739.156,572.45L739.535,571.986L739.55,571.037L738.355,569.352L735.062,567.421L731.128,564.501L732.156,564.485L732.346,563.718L731.131,562.895L731.488,561.735L732.049,560.465L730.629,560.823L729.446,561.847L729.504,562.827L729.396,563.665L728.658,563.641L727.228,562.844L720.444,560.94L714.689,560.075L718.853,558.842L721.232,559.109L720.905,558.287L720.26,557.836L718.299,557.39L716.032,557.97L714.479,557.838L713.049,558.678L711.591,559.889L710.137,560.564L704.457,562.002L699.857,563.335L700.555,562.43L701.286,561.808L703.929,560.668L704.16,558.954L703.321,557.452L702.645,557.904L702.004,559.256L700.96,558.476L699.952,558.596L699.9,560.617L698.688,562.117L698.268,563.522L694.49,565.031L693.942,564.725L694.952,563.334L694.795,562.613L693.494,563.38L691.604,566.06L684.021,567.688L684.325,567.121L685.976,566.816L688.205,565.788L687.553,564.547L686.533,563.264L685.72,563.19L685.049,562.402L684.833,559.798L684.159,558.311L682.689,556.87L682.293,557.242L681.721,560.016L681.311,563.633L681.073,564.808L678.769,565.138L676.719,565.11L669.896,566.271L667.242,565.31L666.133,565.175L665.487,565.281L662.63,566.671L659.24,567.861L658.416,567.653L657.254,567.723L655.064,570.84L652.287,572.45L644.668,570.68L642.689,568.928L641.06,568.66L639.012,568.59L637.11,571.126L635.709,574.477L638.475,576.046L640.73,576.713L644.302,575.667L646.2,573.943L647.874,573.835L648.644,573.438L649.296,572.56L650.735,573.084L650.867,573.728L649.931,574.714L648.765,575.597L648.046,576.563L649.666,578.259L651.978,578.662L652.826,578.297L653.148,576.221L654.408,574.793L656.324,574.9L656.183,575.733L656.473,576.483L657.473,577.74L657.581,579.654L657.769,580.087L655.804,581.09L654.303,581.558L653.165,582.768L653.878,583.316L652.689,583.998L651.863,583.828L651.447,584.112L651.36,584.774L650.762,585.483L651.882,587.262L653.896,588.304L655.43,589.716L661.045,591.229L662.36,591.062L663.877,592.959L664.976,593.587L666.035,593.81L666.101,595.235L664.363,596.427L663.971,597.732L663.596,598.463L662.7,597.651L661.833,597.121L660.102,599.207L659.183,599.702L659.429,597.596L658.617,596.856L657.316,594.853L655.657,593.741L654.441,593.405L653.486,592.675L652.429,592.445L651.483,592.613L649.898,592.266L649.727,591.178L649.214,590.406L647.951,589.497L642.081,588.172L642.074,588.949L642.562,589.479L643.399,589.774L644.419,590.462L644.609,592.652L644.25,593.623L644.22,594.974L643.972,596.384L643.327,597.501L641.845,598.363L641.057,597.818L639.707,594.992L638.013,594.195L635.51,594.321L633.874,595.108L632.265,598.095L630.755,598.664L625.491,597.606L619.441,595.816L619.534,595.075L620.471,594.761L622.255,594.913L622.124,594.148L620.105,591.808L619.728,590.693L619.846,589.296L619.263,589.38L618.247,590.597L614.44,589.892L613.334,588.827L610.91,585.688L607.832,585.777L606.31,583.878L603.807,584.86L602.626,585.876L601.62,587.37L602.109,588.114L603.284,589.222L602.808,589.824L599.272,590.907L590.858,590.437L588.318,589.727L584.991,588.037L580.374,586.777L578.167,586.647L576.061,587.04L569.778,587.51L568.406,587.982L567.192,588.69L566.354,587.994L565.931,586.749L566.653,586.512L567.422,585.702L568.085,584.203L568.116,583.303L567.577,582.716L566.627,582.719L564.682,586.682L565.949,588.787L565.911,589.564L561.682,590.198L552.172,594.94L548.51,597.437L548.629,596.658L553.071,593.439L551.512,593.009L548.898,593.878L547.933,593.627L548.944,591.065L548.571,588.836L546.666,588.862L545.554,590.653L544.747,590.64L543.695,589.9L542.897,590.171L543.615,594.141L544.845,595.771L545.873,597.854L543.309,600.546L540.871,602.781L540.715,604.861L538.284,607.621L535.961,609.234L530.575,612.958L528.963,613.771L526.555,615.536L523.09,616.833L519.86,618.89L518.75,619.237L520.799,617.49L523.29,615.772L521.141,616.061L517.858,615.354L515.778,615.352L515.789,615.961L514.243,616.841L512.662,615.608L511.981,614.765L511.598,614.04L510.928,613.888L510.265,614.223L512.723,619.343L513.768,619.529L514.893,620.038L513.498,621.239L512.023,622.197L509.647,622.841L507.608,620.962L507.193,623.362L507,625.719L506.335,626.295L505.226,627.202L504.695,626.559L504.385,625.629L503.723,626.448L502.683,627.068L501.041,627.207L499.773,627.544L499.782,628.517L500.091,629.488L502.327,628.695L501.53,631.217L499.531,633.75L497.811,634.332L495.258,633.986L494.66,634.234L494.063,634.764L497.094,638.633L495.254,644.517L493.985,646.63L493.157,646.918L492.251,647.004L488.922,645.116L487.108,643.665L488.704,647.626L493.092,648.779L493.327,650.274L493.259,651.528L492.434,653.069L491.611,655.054L492.225,656.465L492.926,659.896L493.544,661.467L494.182,666.267L494.958,668.32L498.993,675.91L500.374,675.978L500.534,676.782L500.473,678.394L497.56,678.862L496.337,679.597L496.111,680.202L495.96,680.526L495.575,680.488L494.19,680.054L491.031,677.936L486.502,676.581L480.522,676.061L476.386,674.965L474.248,673.305L471.957,672.327L469.511,671.99L467.529,671.089L466.013,669.584L463.73,668.636L460.756,668.202L458.785,667.049L457.447,664.288L457.448,664.248L456.289,659.71L454.81,656.821L451.907,653.221L451.611,652.771L451.62,652.165L451.956,650.108L451.676,648.647L450.789,647.419L450.584,646.121L451.134,644.794L451.16,643.175L450.739,641.306L448.893,639.209L445.626,636.962L442.913,633.706L440.681,629.441L438.429,626.47L436.228,624.794L434.711,622.768L433.951,620.394L433.688,619.006L434.07,618.65L432.724,616.015L429.741,611.057L428.064,607.471L427.686,605.223L425.772,602.48L422.405,599.282L420.63,597.229L420.163,595.788L414.945,591.532L413.499,588.951L412.285,588.091L410.891,588.119L410.169,587.847L410.118,587.274L409.68,587.216L408.782,587.711L405.923,587.718L401.108,587.188L397.629,586.339L395.56,585.142L394.017,585.233L393.074,586.575L391.204,587.341L388.404,587.61L385.859,590.009L383.558,594.619L382.516,597.58L382.665,598.932L382.098,599.88L380.739,600.418L379.266,601.682L377.821,603.72L376.14,604.644L374.297,604.498L370.997,602.676L366.254,599.169L362.551,596.978L359.808,596.025L357.407,594.398L355.426,592.061L353.547,590.463L351.84,589.609L349.89,587.021L347.777,582.702L346.841,579.446L347.088,576.071L344.513,568.474L343.088,565.174L341.971,563.614L339.724,561.68L336.352,559.365L331.86,554.902L326.418,548.291L322.587,544.263L320.195,542.819L318.252,540.425L316.761,537.084L315.166,534.922L315.031,534.828L314.822,534.767L310.49,534.319L306.159,533.861L301.825,533.433L297.497,532.954L293.17,532.464L288.84,532.005L284.515,531.495L280.192,530.974L279.895,533.619L279.599,536.263L279.231,538.898L278.939,541.5L271.944,540.743L264.956,539.918L257.966,539.107L250.984,538.229L243.935,537.314L236.955,536.422L229.984,535.462L223.017,534.476L214.15,529.665L205.327,524.81L196.618,519.922L187.888,514.939L179.195,509.952L170.547,504.923L162.012,499.864L153.46,494.71L154.603,493.587L156.503,490.31L154.239,490.14L148.664,489.636L143.028,489.06L137.461,488.48L131.817,487.908L126.251,487.293L120.616,486.645L115.043,486.034L109.409,485.35L109.443,485.19L109.842,482.633L109.132,481.559L107.839,481.871L108.06,478.478L108.67,476.972L108.858,475.417L108.55,471.489L106.718,466.348L101.868,459.405L99.153,456.828L97.301,453.932L95.883,452.941L94.028,452.313L93.173,453.258L91.165,452.045L92.104,449.476L90.778,445.295L89.181,444.509L84.737,443.738L79.338,440.365L77.937,438.767L77.844,436.462L75.537,433.926L72.423,431.234L70.307,431.188L67.762,430.274L64.404,428.054L62.236,427.35L57.936,426.663L56.469,425.999L55.411,423.993L54.022,422.751L54.869,420.8L55.144,418.873L55.773,417.503L55.839,414.165L57.173,411.401L56.906,410.228L56.258,409.172L53.786,407.268L53.701,405.673L54.693,403.715L54.325,402.132L52.349,400.264L50.997,396.808L48.776,394.571L48.359,391.608L47.161,389.505L47.015,387.932L44.741,381.746L41.99,376.66L42.024,374.192L42.759,370.929L44.767,369.372L45.998,367.864L46.348,366.291L46.398,365.066L45.653,362.688L40.898,360.127L38.139,354.072L38.929,350.178L38.405,345.838L39.093,343.328L39.594,340.51L40.963,340.243L41.976,340.777L41.619,341.836L41.403,343.875L42.274,345.696L43.31,346.663L44.068,348.408L44.779,349.071L45.576,349.414L45.376,348.377L45.028,347.641L44.972,345.572L44.486,342.83L43.573,341.17L43.538,338.548L43.131,337.795L43.054,336.831L44.613,336.1L46.527,335.807L48.869,336.183L55.294,338.286L56.783,338.04L57.934,338.557L58.779,338.694L57.174,337.587L56.107,337.519L55,337.097L52.626,336.593L51.751,336.059L50.943,335.03L50.269,334.763L47.764,335.5L46.859,335.083L44.974,333.03L44.081,332.572L42.285,332.937L41.048,336.454L40.834,339.222L39.806,339.24L39.025,337.869L37.502,336.72L36.386,335.339L34.873,332.945L34.052,331.987L32.482,333.22L32.619,332.487L33.689,330.855L34.335,327.818L35.432,330.699L35.394,328.887L34.533,326.629L33.642,325.692L33.316,322.037L30.933,319.216L29.462,315.36L26.191,308.659L27.222,303.923L27.191,297.544L28.909,294.383L29.526,292.022L29.713,288.159L29.359,285.946L27.131,279.481L24.527,274.833L24.79,271.936L25.358,269.129L26.874,266.904L28.351,264.582L29.033,264.05L29.133,264.381L28.86,264.861L29.285,265.202L29.805,264.106L30.343,263.617L29.823,263.378L29.988,263.039L30.5,262.414L32.578,259.362L33.764,255.1L36.429,250.238L36.88,248.475L37.245,244.576L37.123,242.127L36.221,240.138L37.493,238.014L38.136,235.834L36.703,231.963L37.039,227.58L37.392,225.745L38.992,221.221L38.935,219.049L38.32,215.332L39.872,212.692L41.079,211.198L45.059,204.196L45.641,203.723L46.396,203.946L48.047,203.056L47.56,202.568L46.444,202.928L48.133,200.198L49.748,197.92L50.605,197.14L53.324,188.952L55.699,182.772L57.114,180.909L57.466,178.65L58.665,175.822L59.295,172.829L65.196,159.149L65.466,157.384L66.651,155.201L67.909,149.011L70.1,142.326L69.909,141.328L69.963,140.316L70.442,140.327L70.933,141.541L74.604,142.604L77.214,142.328L78.014,142.899L78.611,144.394L79.814,145.036L81.442,145.241L81.03,144.783L80.328,144.498L79.039,142.892L78.409,141.516L75.562,140.742L75.156,139.855L71.729,139.632L71.004,138.608L69.078,138.601L70.145,136.602L70.819,133.888L71.691,131.319L71.58,133.341L72.033,135.698L73.264,133.532L74.421,130.79L73.706,129.342L72.173,128.038L72.354,125.182L77.141,124.1L75.083,122.988L74.559,121.724L73.509,121.245L73.223,122.016L72.582,122.983L72.603,121.492L72.968,119.846L73.341,116.964L72.962,112.022L73.695,105.957L73.289,102.761L71.666,99.329L71.489,97.567L72.11,93.354L73.391,90.451L73.544,88.192L74.686,88.663L77.196,91.204L80.612,93.664L81.465,94.937L83.076,96.218L92.947,100.251L93.682,100.332L95.167,100.029L95.739,100.276L96.754,102.261L97.467,102.631L98.463,102.824L99.297,102.759L100.847,102.002L100.889,102.481L100.562,103.451L100.601,104.99L101.009,107.099L101.073,108.348L98.329,111.071L97.926,111.044L98.179,109.925L98.016,109.667L92.999,114.175L91.066,116.441L90.634,117.554L90.434,118.264L90.881,118.56L92.108,118.607L94.047,118.001L94.168,117.779L92.527,117.745L91.816,117.546L92.214,116.338L92.588,115.847L94.09,114.269L95.424,113.493L97.28,112.735L98.414,112.03L99.396,110.815L101.496,109.569L101.942,109.225L102.214,107.814L102.398,107.567L103.158,107.989L102.834,110.446L102.323,111.453L100.56,112.326L100.266,112.755L100.059,114.567L99.743,114.65L99.252,114.302L99.056,114.375L99.897,116.647L99.921,118.269L99.617,119.588L98.527,122.051L98.034,122.34L97.408,122.04L96.706,120.953L96.465,121.184L95.204,122.961L94.973,122.727L95.194,120.235L95.019,120.016L93.352,120.701L92.462,121.559L91.57,123.055L90.745,123.675L92.403,124.31L94.029,124.423L95.085,125.524L95.514,125.686L96.876,125.254L97.358,124.791L98.966,122.597L99.58,122.298L100.303,122.454L101.059,122.278L102.468,121.219L102.619,120.665L103.121,117.531L103.694,115.862L103.627,115.249L103.342,114.577L103.547,114.038L104.123,113.219L104.404,112.405L104.271,111.604L104.661,110.82L106.07,109.295L106.448,108.549L108.126,107.097L107.993,106.298L107.417,105.209L107.079,104.311L106.861,102.98L106.536,102.467L106.385,102.595L106.441,104.731L106.246,104.805L105.076,103.339L104.871,102.604L104.958,101.653L105.25,101.012L106.244,100.564L107.281,100.593L107.335,99.972L106.645,97.834L106.064,96.784L105.58,96.227L104.805,95.886L104.505,95.507L104.517,95.044L104.842,94.498L105.369,94.474L106.541,95.051L107.359,94.809L107.5,94.085L107.393,93.633L108.16,91.048L108.251,88.829L108.081,88.401L107.824,88.288L107.427,88.475L106.656,88.347L106.317,87.491L106.153,86.006L106.065,82.594L107.558,83.008L113.905,84.748L120.207,86.444L126.571,88.125L132.888,89.762L139.214,91.37L145.6,92.962L151.94,94.51L158.341,96.043L164.695,97.532L171.11,99.004L177.478,100.435L183.906,101.847L190.287,103.218L196.674,104.559L203.121,105.882L209.521,107.163L215.98,108.425L222.391,109.647L228.862,110.849L235.285,112.011L241.712,113.143L248.199,114.255L254.637,115.327L261.134,116.378L267.582,117.39L274.088,118.38L280.545,119.332L287.061,120.261L293.526,121.153L299.995,122.014L306.523,122.852L313.001,123.653L319.536,124.431L326.02,125.172L332.563,125.888L339.054,126.568L345.603,127.223L352.1,127.843L358.6,128.432L365.157,128.996L371.662,129.525L378.225,130.028L384.734,130.496L391.301,130.937L397.815,131.344L404.33,131.721L410.903,132.071L417.421,132.387L423.997,132.675L430.518,132.931L437.096,133.158L443.619,133.352L450.199,133.518L456.724,133.651L463.25,133.755L469.831,133.828L476.357,133.871L482.939,133.883L489.465,133.865L496.047,133.815L502.573,133.736L509.098,133.627L515.679,133.486L522.203,133.315L525.851,133.207L525.753,128.273L525.687,124.362L528.998,124.703L530.012,125.402L530.298,125.719L530.281,126.82L530.668,130.07L531.315,132.781L532.87,135.992L532.871,136.033L533.027,137.293L533.501,138.093L534.36,138.797L537.614,139.572L543.157,140.406L546.38,141.49L547.164,142.803L548.694,143.305L550.907,142.913L552.437,142.265L553.651,140.896L555.526,140.513L557.086,140.513L558.707,140.59L559.549,140.708L562.11,141.629L563.77,142.352L566.145,143.81L567.468,144.426L568.18,146.021L569.032,148.058L570.038,147.996L570.744,146.723L572.684,146.396L575.363,147.083L577.816,149.379L581.21,151.319L583.304,152.279L585.321,152.135L587.872,150.84L590.456,148.554L592.383,148.037L593.573,148.149L594.372,149.727L595.259,150.272L597.372,149.939L601.874,149.895L605.359,149.146L606.28,150.01L607.136,151.414L608.575,151.738L610.495,151.115L614.056,151.159L615.519,151.105L618.32,150.264L619.599,149.484L621.397,148.24L623.821,146.521L627.969,143.552L631.489,142.239L635.08,143.706L637.928,145L639.003,145.54L641.919,146.861L646.093,148.732L650.82,150.858L655.619,152.962L659.775,154.802L662.731,156.082L663.881,156.597L667.157,158.077L670.441,159.55L673.731,161.016L676.973,162.482L680.277,163.934L683.589,165.378L686.908,166.815L690.234,168.245L691.481,171.258L692.663,174.197L694.749,176.134L696.695,177.881L697.653,177.656L698.495,176.658L699.061,176.158L700.074,175.923L702.241,174.848L702.949,174.906L703.403,175.211L703.49,175.779L703.502,176.234L703.302,177.22L704.076,178.848L704.483,180.739L705.05,182.149L706.253,183.877L707.338,185.207L708.414,185.332L710.63,184.112L712.068,183.553L712.946,183.538L714.598,184.691L715.473,185.384L715.756,186.047L714.463,190.501L717.903,192.075L721.724,193.748L726.378,195.733L729.198,196.972L732.951,198.758L734.098,201.987L735.049,204.749L736.357,208.537L737.69,212.447L739.026,216.357L740.401,220.47L741.976,225.01L743.345,229.043L744.841,233.43L746.88,239.148L746.386,241.581L745.333,246.834L744.43,251.599L744.474,252.933L744.39,259.652L743.884,262.504L742.516,264.329L741.084,266.163L739.448,269.035L737.353,270.681L736.321,271.605L735.901,272.847L735.653,275.526L736.417,279.421L738.861,282.453L741.925,283.871L745.234,285.202L749.522,284.471L752.953,281.361L756.531,278.088L759.713,275.128L763.537,271.623L766.964,268.431L770.977,266.759L776.554,264.439L783.561,261.48L786.773,259.033L790.883,255.807L795.578,252.152L799.661,248.944L801.671,247.214L802.977,245.419L803.173,244.28L802.925,243.699L802.38,243.182L801.749,242.85L801.136,242.6L800.796,242.165L800.515,241.127L800.099,240.624L799.708,240.242L798.986,236.216L798.308,235.051L796.227,232.197L798.71,230.2L800.976,228.371L802.834,226.961L807.103,225.873L811.059,225.051L816.593,223.824L821.191,222.831L826.599,221.594L829.722,220.913L833.881,219.896L835.019,215.81L836.058,212.128L837.312,208.604L839.921,204.114L840.753,203.233L840.991,201.69L842.745,199.818L844.754,198.008L845.382,196.579L845.618,195.798L850.317,187.912L853.134,184.094L855.577,181.726L857.611,180.393L859.117,180.088ZM921.019,262.136L920.232,263.952L921.365,263.8L922.206,263.086L922.8,261.969L924.508,260.187L926.106,259.165L926.614,258.888L927.639,259.494L929.129,258.328L930.709,257.478L924.522,263.41L923.138,264.281L921.279,266.018L919.519,267.422L918.144,268.113L911.655,272.982L911.069,273.231L910.384,273.121L904.755,276.213L902.372,277.076L900.246,278.165L901.579,276.563L901.521,276.107L900.997,275.864L900.177,276.214L899.586,277.658L898.229,278.451L897.571,277.215L897.78,276.046L898.192,274.907L899.243,272.997L901.049,271.48L901.853,270.362L902.777,270.881L902.627,269.851L903.081,269.127L903.6,268.642L905.054,268.244L905.737,267.884L906.255,267.399L906.778,267.169L908.546,267.195L910.015,266.615L911.119,265.664L912.394,265.093L915.735,263.982L919.054,262.568L920.204,261.337L922.398,258.3L923.9,257.178L922.065,260.546ZM967.492,164.253L966.733,164.988L965.663,165.175L966.057,166.347L966.089,166.815L964.803,166.551L964.219,166.312L963.752,164.729L964.213,162.921L964.806,162.07L965.897,162.137L967.198,163.569ZM895.663,280.592L894.89,280.884L895.099,278.475L896.295,277.086L896.897,277.138L897.1,277.897L897.099,278.625L896.4,279.925ZM951.716,243.283L947.463,245.805L946.528,245.313L947.565,244.65L948.474,242.511L949.366,242.019L951.149,242.507ZM938.753,244.391L938.156,245.218L937.177,245.426L937.393,244.412L937.203,243.131L937.275,241.641L937.382,241.134L937.811,240.617ZM961.269,243.064L960.129,243.814L956.947,243.904L959.108,242.446L959.451,242.078L959.413,240.919L959.31,240.388L960.913,242.353ZM897.939,394.679L897.796,395.225L895.913,392.974L897.367,393.504L897.799,394.119ZM903.134,408.463L900.847,409.714L900.589,409.523L903.046,407.55L902.806,402.682L902.406,400.53L900.992,396.848L900.867,396.072L901.562,397.172L902.907,400.575L903.383,403.302L903.565,407.378ZM899.056,410.71L896.148,413.167L895.721,413.145L897.622,411.447ZM888.824,426.555L888.413,426.907L889.392,423.624L891.844,419.178L892.64,418.392L890.599,422.19ZM818.852,637.581L818.205,638.309L816.625,638.136L815.66,637.485L815.021,636.04L816.582,637.447L817.171,637.712ZM817.477,635.487L817.639,636.852L816.191,634.77L815.084,632.423L816.198,633.048ZM859.107,661.061L855.744,666.131L855.996,664.978L857.229,662.367L857.548,661.16L858.482,660.283L859.307,658.853L859.098,657.379L860.423,656.095L860.847,655.848ZM608.887,591.584L608.103,591.964L604.595,590.157L604.32,589.318L605.95,588.393L606.98,588.406L608.659,589.314L609.267,589.599L609.515,589.99L609.413,590.65ZM502.749,633.191L502.3,633.236L503.328,631.32L503.469,630.548L505.088,628.136L505.98,627.76L506.367,628.769L504.667,630.494ZM507.917,627.248L507.171,627.38L508.051,626.11L509.61,625.439L512.93,622.954L514.269,622.769L515.001,621.945L515.297,621.818L515.091,622.836L512.43,624.342ZM495.802,647.306L495.131,648.645L495.344,646.621L496.97,642.076L500.378,636.092L501.869,635.065L497.946,641.663ZM542.952,603.203L541.927,603.48L546.305,599.713L547.147,598.503L548.326,598.502L546.409,600.605ZM499.894,673.806L499.597,674.856L497.795,669.832L494.893,658.47L494.699,651.964L495.138,649.697L495.96,658.907L499.177,670.546ZM57.113,437.1L56.162,436.905L54.676,436.279L55.343,435.895L56.249,435.698L56.448,436.044ZM68.967,459.659L68.072,459.487L66.962,459.01L66.715,457.641L67.619,457.774L68.465,458.145L68.917,459.267ZM87.543,473.417L86.389,473.409L85.263,472.648L84.676,470.157L83.905,468.17L84.64,467.79L85.215,469.69L87.033,472.797ZM61.425,440.75L60.066,440.754L59.134,440.185L58.13,437.607L61.562,438.159L62.741,439.464L62.874,439.793ZM65.364,437.777L68.91,439.908L71.065,439.835L71.335,440.492L70.95,440.907L66.078,440.702L64.819,439.719L64.889,438.847L64.623,437.893ZM90.451,460.563L91.025,462.461L89.706,461.953L88.246,461.748L88.056,460.693L87.87,459.303L87.671,458.921L86.745,458.583L86.705,458.447L86.706,457.815L87.051,457.557L89.787,459.697ZM104.162,89.859L104.181,90.415L103.46,90.724L103.009,90.683L102.585,89.717L102.286,89.549L102.225,90.803L102.008,91.167L100.812,90.069L100.709,89.404L101.314,88.895L102.346,88.506L102.689,88.517ZM99.642,92.796L99.809,93.649L98.33,92.724L97.754,92.095L97.715,91.617L97.824,90.205L98.065,89.763L98.806,89.802L99.671,91.87ZM104.049,102.42L103.928,105.612L104.589,104.478L106.066,107.173L105.775,108.238L105.461,108.535L104.994,108.534L104.646,108.1L104.525,107.26L104.145,106.732L103.234,106.227L102.975,105.264L102.921,104.613L103.377,102.957L103.259,102.33L102.74,102.102L102.374,101.534L101.934,100.182L101.914,99.836L102.554,98.996L103.809,97.604L104.609,97.019L104.964,97.202L105.308,97.848L105.608,98.863L105.338,99.425L102.788,100.036L102.604,100.282L103.64,100.95L103.942,101.331ZM936.76,245.119L936.413,245.698L935.902,244.643L935.88,243.269L936.178,243.179L936.559,243.799ZM901.752,299.722L900.697,303.726L900.454,303.063L901.841,298.072ZM891.588,346.437L890.862,347.047L892.419,341.708L892.961,337.476L893.31,335.937L893.372,338.822L892.8,341.611ZM887.955,426.466L887.563,426.602L886.771,426.537L885.654,426.295L885.301,425.998L886.332,425.88ZM841.066,676.042L840.463,676.642L840.127,676.541L840.004,675.87L838.879,674.486L838.807,674.092L841.15,675.211L841.3,675.591ZM851.132,670.568L850.75,670.64L850.836,670.256L851.556,669.466L851.907,669.644L851.974,669.999ZM854.743,667.508L854.232,667.729L854.882,666.583L855.126,666.617ZM846.915,673.405L846.092,674.089L845.023,673.881L845.999,673.168L849.178,671.958L848.088,672.899ZM812.637,531.303L812.814,537.085L812.091,535.141L811.668,533.225L812.101,531.982ZM836.29,678.097L834.952,678.584L835.939,677.468L836.078,676.057L836.878,676.972L837,677.642ZM853.685,611.553L854.31,613.161L851.692,609.635L848.128,603.98L845.946,599.452L847.085,600.593L848.408,603.059ZM831.912,680.19L831.381,680.326L831.241,679.985L832.085,679.386L832.783,679.301L832.791,679.788ZM667.418,581.685L666.445,583.011L666.47,582.517L667.151,581.221L667.689,580.716ZM672.909,569.243L672.716,569.509L670.855,569.208L669.723,568.873L669.533,568.441L672.585,568.948ZM682.593,567.352L680.909,568.027L678.298,568.266L677.701,568.166L678.753,567.725L681.816,566.944ZM659.798,573.668L659.977,574.757L658.978,574.279L657.521,574.377L658.067,573.957L658.541,573.543L658.72,573.116L660.405,571.602L659.995,572.666ZM668.434,579.331L667.997,580.112L668.152,576.533L667.051,573.611L668.053,574.822L668.504,576.375ZM748.114,573.485L746.202,574.623L743.937,574.329L745.299,574.012L746.278,574.119L748.645,572.544L749.823,571.468L751.293,570.883ZM93.799,122.911L93.513,123.3L93.305,123.199L93.119,122.168L93.241,121.521L93.757,121.154L93.931,122.65ZM101.962,120.485L101.766,120.985L101.11,121.23L100.803,121.061L100.976,120.428L100.834,120.304L99.981,120.835L100.427,119.428L101.178,117.977L101.462,118.012L101.563,119.144ZM101.675,115.522L101.447,115.926L100.769,115.188L100.627,114.639L100.975,113.587L101.334,112.922L101.541,112.809L101.944,113.259L102.064,113.462ZM102.051,95.165L101.77,95.342L101.051,94.802L100.71,94.155L100.725,93.481L101.377,92.39L101.84,92.18L102.087,92.334L101.898,93.426L102.29,94.723ZM961.678,169.639L961.197,170.277L960.534,170.367L960.158,169.231L960.211,168.823L960.373,168.552L960.817,168.752Z"/>
<path class="country" d="M289.107,720L287.344,717.03L284.444,713.609L270.802,701.653L271.656,701.744L275.661,704.745L276.382,704.619L276.67,703.361L276.28,701.829L275.541,701.389L274.343,701.586L272.824,701.103L272.098,700.542L269.882,699.982L267.126,697.909L266.083,695.98L266.233,693.898L262.548,689.048L261.284,686.4L262.032,686.687L263,687.805L264.125,688.214L265.436,688.359L266.406,688.062L266.177,687.31L265.318,686.609L259.572,683.619L257.759,681.754L253.159,678.468L252.121,677.374L251.662,674.687L250.451,674.422L249.369,675.022L246.371,675.39L245.707,674.459L245.728,673.651L247.901,673.022L250.029,670.806L250.134,669.926L248.944,670.797L247.28,671.732L245.601,672.136L243.09,672.355L241.91,671.845L240.909,671.153L239.497,668.787L239.54,661.65L241.366,659.401L243.416,657.178L245.107,655.964L245.809,657.147L246.705,657.379L246.174,656.055L244.87,654.757L244.483,653.53L244.536,652.48L244.093,650.473L240.297,645.849L236.182,645.651L234.538,645.317L233.232,643.559L232.291,640.789L231.903,638.496L231.98,637.324L231.757,636.112L225.037,633.259L223.161,631.331L221.42,629.011L220.755,627.204L220.11,625.808L219.738,623.549L219.567,620.95L220.841,617.773L222.024,616.341L217.439,614.475L215.663,614.184L214.013,614.605L212.798,613.572L210.192,612.214L207.355,608.319L204.358,601.52L200.459,598.885L199.389,596.506L197.918,594.31L196.819,591.676L196.686,590.587L196.339,589.917L194.476,587.902L192.579,584.686L192.28,582.293L192.245,578.705L190.839,577.207L189.401,576.403L189.299,574.697L189.597,573.755L189.37,571.905L186.857,567.172L185.758,563.404L185.067,562.177L184.529,560.479L184.627,557.149L183.996,552.871L182.209,547.614L180.682,543.968L180.161,540.485L181.217,537.223L181.204,535.108L181,534.577L181.327,533.927L181.978,534.408L182.647,533.897L182.93,531.748L182.328,530.985L180.386,529.955L179.61,529.369L174.801,527.641L172.249,525.958L172.524,523.099L171.406,521.577L170.417,520.575L167.041,518.28L166.258,519.015L165.487,520.499L163.949,520.559L162.594,520.401L160.533,518.91L155.727,513.753L154.658,512.85L152.97,512.164L152.247,511.364L148.943,508.458L149.496,509.77L150.322,511.174L150.654,514.858L149.057,517.184L146.702,525.899L147.151,527.813L148.258,530.929L148.562,535.639L148.31,538.998L148.82,541.832L147.39,548.001L147.401,549.953L148.413,553.331L150.827,556.795L151.199,558.437L154.622,561.33L156.491,564.642L160.502,569.4L161.658,571.337L164.819,578.16L164.648,580.029L165.066,582.41L167.555,582.34L168.365,584.209L168.083,584.986L168.274,585.636L169.537,585.726L170.559,586.351L171.718,593.382L172.82,594.47L174.296,595.126L175.941,596.137L175.739,597.832L175.442,599.181L176.668,601.396L175.942,603.99L176.832,606.436L176.252,608.601L176.49,610.405L179.572,614.884L183.689,618.696L184.02,622.887L185.377,626.909L187.103,628.119L188.881,629.99L188.335,631.542L188.336,632.524L190.513,635.843L190.391,639.664L192.278,642.443L192.932,642.705L193.438,642.414L192.151,639.728L191.642,638.017L191.875,635.478L192.524,635.25L196.586,639.906L196.672,642.94L198.005,644.852L197.749,647.098L198.531,648.6L198.544,650.6L199.589,654.013L199.009,658.489L199.291,661.868L201.614,667.289L203.907,668.676L204.018,671.17L205.643,677.857L208.073,681.728L209.129,684.834L209.11,686.654L207.653,689.205L207.237,691.049L208.069,696.951L210.071,700.179L212.689,701.266L213.101,701.726L212.76,702.488L213.595,703.328L214.729,702.554L215.445,701.358L215.1,699.817L215.168,698.735L215.735,698.044L216.604,698.04L221.284,702.623L221.94,704.244L223.661,706.205L225.168,708.62L225.653,710.376L226.952,711.995L227.242,715.295L230.654,717.22L232.184,720L214.541,720L214.541,720L214.125,719.369L213.511,716.83L212.215,714.639L206.772,710.826L204.336,707.217L201.753,704.712L199.163,701.19L191.691,694.883L188.677,691.762L186.825,688.85L185.353,688.668L184.231,688.782L183.877,687.998L183.999,686.679L183.67,685.736L179.497,681.117L178.837,678.781L178.99,676.286L181.061,670.022L182.104,666.318L182.101,664.324L181.681,664.014L181.391,662.87L181.721,659.744L181.103,656.225L177.953,648.631L175.072,646.784L172.44,645.339L165.839,637.963L164.315,634.599L164.083,632.758L164.451,629.174L163.056,631.071L161.378,632.346L158.252,631.693L154.363,632.789L152.465,630.822L151.661,628.796L150.249,626.294L148.385,625.515L147.13,625.212L145.297,622.095L143.51,620.913L140.893,620.073L138.757,618.289L138.363,616.655L138.377,614.477L137.719,613.041L134.541,609.905L132.166,606.622L129.695,604.305L129.153,602.718L129.266,601.709L133.565,602.802L138.607,604.846L141.176,604.985L142.907,604.269L144.513,603.818L144.598,604.616L144.037,606.038L145.279,607.62L147.01,609.04L148.437,609.171L147.311,607.777L146.851,605.226L147.377,604.414L147.584,603.257L145.623,603.153L145.435,602.501L147.453,601.009L150.147,596.546L151.939,592L150.693,587.531L147.847,584.049L142.24,574.349L138.761,569.235L137.829,567.405L136.814,566.428L133.533,564.772L131.102,561.821L126.641,557.434L124.826,555.254L124.134,550.799L123.097,550.013L124.015,547.243L124.517,542.062L123.914,540.612L121.451,538.833L121.498,535.262L122.011,531.95L121.9,529.553L118.074,524.781L118.236,522.895L118.593,521.132L118.458,519.269L116.737,515.12L114.438,511.348L113.771,509.622L114.269,506.506L113.394,505.447L113.856,505.334L114.748,505.602L115.39,505.317L115.907,503.166L112.212,498.884L111.934,493.97L110.089,491.026L109.729,489.987L109.409,485.35L109.409,485.35L115.043,486.034L120.616,486.645L126.251,487.293L131.817,487.908L137.461,488.48L143.028,489.06L148.664,489.636L154.239,490.14L156.503,490.31L154.603,493.587L153.46,494.71L162.012,499.864L170.547,504.923L179.195,509.952L187.888,514.939L196.618,519.922L205.327,524.81L214.15,529.665L223.017,534.476L229.984,535.462L236.955,536.422L243.935,537.314L250.984,538.229L257.966,539.107L264.956,539.918L271.944,540.743L278.939,541.5L279.231,538.898L279.599,536.263L279.895,533.619L280.192,530.974L284.515,531.495L288.84,532.005L293.17,532.464L297.497,532.954L301.825,533.433L306.159,533.861L310.49,534.319L314.822,534.767L315.031,534.828L315.166,534.922L316.761,537.084L318.252,540.425L320.195,542.819L322.587,544.263L326.418,548.291L331.86,554.902L336.352,559.365L339.724,561.68L341.971,563.614L343.088,565.174L344.513,568.474L347.088,576.071L346.841,579.446L347.777,582.702L349.89,587.021L351.84,589.609L353.547,590.463L355.426,592.061L357.407,594.398L359.808,596.025L362.551,596.978L366.254,599.169L370.997,602.676L374.297,604.498L376.14,604.644L377.821,603.72L379.266,601.682L380.739,600.418L382.098,599.88L382.665,598.932L382.516,597.58L383.558,594.619L385.859,590.009L388.404,587.61L391.204,587.341L393.074,586.575L394.017,585.233L395.56,585.142L397.629,586.339L401.108,587.188L405.923,587.718L408.782,587.711L409.68,587.216L410.118,587.274L410.169,587.847L410.891,588.119L412.285,588.091L413.499,588.951L414.945,591.532L420.163,595.788L420.63,597.229L422.405,599.282L425.772,602.48L427.686,605.223L428.064,607.471L429.741,611.057L432.724,616.015L434.07,618.65L433.688,619.006L433.951,620.394L434.711,622.768L436.228,624.794L438.429,626.47L440.681,629.441L442.913,633.706L445.626,636.962L448.893,639.209L450.739,641.306L451.16,643.175L451.134,644.794L450.584,646.121L450.789,647.419L451.676,648.647L451.956,650.108L451.62,652.165L451.611,652.771L451.907,653.221L454.81,656.821L456.289,659.71L457.448,664.248L457.447,664.288L458.785,667.049L460.756,668.202L463.73,668.636L466.013,669.584L467.529,671.089L469.511,671.99L471.957,672.327L474.248,673.305L476.386,674.965L480.522,676.061L486.502,676.581L491.031,677.936L494.19,680.054L495.575,680.488L495.96,680.526L496.111,680.202L496.337,679.597L497.56,678.862L500.473,678.394L500.133,683.189L498.858,687.104L494.67,695.297L492.84,700.369L489.478,714.821L488.894,720L289.107,720ZM212.181,682.057L212.439,684.726L211.34,684.169L210.148,682.585L209.393,680.696L209.581,679.912L209.834,679.785L211.687,681.097ZM172.562,580.668L172.349,581.045L170.471,579.286L166.648,573.602L165.398,570.869L165.302,569.696L165.889,567.152L167.426,567.747L168.949,569.741L169.546,571.495L169.239,573.301L172.584,574.732L172.434,578.75ZM127.53,595.975L127.092,596.676L123.936,594.463L126.355,592.159L126.595,589.313L127.588,588.883L128.145,589.939L128.417,593.708ZM191.652,584.871L189.259,590.091L187.733,589.768L184.786,587.529L184.594,586.387L186.843,580.281L187.925,579.588L190.899,579.194L191.216,580.026L191.211,581.961ZM69.524,563.129L68.461,563.807L67.229,558.525L67.49,557.375L68.273,556.926L69.325,557.29L69.056,558.48L69.76,559.723L69.906,560.756ZM225.879,703.75L225.397,703.809L224.47,702.437L224.393,699.398L224.667,699.111L226.283,703.076L226.148,703.503ZM152.728,513.868L152.08,513.832L151.08,512.564L151.337,511.571L151.633,511.542L152.67,512.609L152.95,513.451ZM204.165,657.163L204.277,657.994L204.091,658.211L203.336,657.532L201.396,660.751L200.893,661.003L202.488,656.432L203.497,655.886L204.5,655.909ZM185.877,692.516L185.484,693.551L179.65,688.283L181.253,688.124L182.979,688.713ZM178.767,687.862L178.261,688.068L176.825,685.126L176.879,683.267L176.227,682.394L174.475,681.51L176.668,678.077L179.167,670.622L179.562,672.107L176.975,679.628L176.891,680.671L177.357,681.718L177.879,683.423L177.684,685.179L178.671,686.955Z"/>
<path class="country" d="M810.46,720L818.839,717.519L820.481,716.755L825.298,713.867L830.544,712.103L836.353,711.722L836.353,711.722L842.235,711.716L846.788,710.601L848.856,709.57L848.738,710.241L851.058,711.432L851.86,711.405L854.678,710.066L862.335,708.287L863.197,708.568L864.895,709.823L867.026,710.384L869.191,710.693L871.414,710.461L873.458,709.734L875.516,709.489L878.299,710.437L879.118,710.476L881.224,709.647L880.867,711.1L885,712.255L888.567,715.386L890.834,716.505L893.306,717.416L895.3,717.977L897.347,717.998L903.489,716.503L904.922,716.321L906.368,716.582L907.584,716.525L908.246,716.18L921.326,719.393L922.536,720L810.46,720ZM927.512,720L927.007,719.799L926.364,718.763L927.678,718.388L929.523,718.178L932.717,718.108L932.701,719.495L932.583,720L927.512,720ZM923.033,714.866L922.65,715.358L921.288,714.764L919.492,714.794L918.194,713.737L917.146,713.438L916.966,712.989L918.451,712.297L919.578,712.212L921.05,712.945L922.148,714.574ZM908.603,711.752L911.678,711.618L912.625,711.087L913.623,710.789L914.679,710.762L916.57,712.303L915.371,712.809L914.356,713.03L913.507,712.889L910.827,713.348L908.913,713.191L907.875,712.926L907.29,712.482ZM927.027,717.679L926.261,717.932L923.94,717.472L923.064,716.853L923.614,715.633L923.511,714.434L923.815,714.326L924.43,715.614L926.28,715.812L926.428,716.104L927.705,717.039ZM892.464,712.554L892.663,713.122L888.5,712.273L886.51,710.892L885.807,710.629L886.813,710.383L891.681,712.309Z"/>
<path class="country" d="M53.36,26.245L59.513,31.332L66.164,34.962L70.901,38.248L73.941,39.751L74.968,40.453L75.562,41.275L76.009,42.943L76.494,46.705L77.032,49.209L78.309,53.595L79.448,56.79L79.547,57.968L79.034,58.153L78.898,58.792L79.599,61.769L81.638,64.891L83.469,66.629L87.483,69.73L89.767,72.311L90.271,73.732L91.148,75.261L91.386,76.221L91.533,79.491L92.57,82.891L92.928,88.898L93.426,88.573L94.111,86.985L94.426,86.693L94.91,86.618L95.094,87.393L95.012,88.898L95.274,92.667L94.608,93.582L94.209,93.554L92.668,92.648L91.962,93.083L90.796,94.11L90.112,94.467L89.857,94.138L85.377,91.523L82.762,89.524L79.43,86.623L75.334,83.397L73.059,81.304L71.269,79.353L70.074,77.751L70.095,76.733L70.279,76.319L74.162,74.217L75.876,72.946L76.718,71.88L77.383,70.633L77.707,68.985L77.513,69.054L76.778,70.535L75.954,71.734L75.094,72.667L74.671,72.922L70.96,72.389L68.153,71.356L66.328,72.201L65.857,72.226L65.197,71.551L63.988,69.295L61.948,67.118L62.321,66.851L64.186,66.623L65.344,65.874L65.246,65.63L64.643,65.527L64.19,65.129L63.606,63.494L63.202,62.94L61.799,63.182L61.261,63.056L61.071,62.013L62.403,60.169L62.614,59.68L61.111,60.06L60.778,59.655L60.621,58.879L60.34,58.491L59.309,58.292L58.396,57.36L57.956,57.476L57.514,58.318L57.073,58.434L55.936,56.401L55.531,56.228L54.385,57.1L54.098,57.094L53.79,56.438L54.47,53.619L54.837,52.839L55.133,52.635L56.791,52.485L61.132,53.104L61.657,52.715L58.444,51.99L57.787,51.352L57.201,50.138L56.317,49.853L55.949,49.393L55.655,48.528L55.159,45.631L54.492,44.688L53.116,43.812L52.491,43.095L52.117,43.187L51.567,43.819L50.961,44.092L49.889,44.039L48.969,43.522L48.474,42.588L48.341,41.603L48.453,40.569L49.287,39.433L49.465,38.892L49.502,38.263L49.294,37.68L48.958,37.141L48.637,37.249L48.33,38.003L47.893,38.458L46.876,38.591L46.449,37.635L46.333,36.44L46.011,35.519L43.08,34.537L41.368,35.032L40.673,34.883L40.083,34.426L40.15,33.891L41.222,32.754L41.679,30.894L41.682,30.38L40.39,29.642L40.342,29.112L41.853,27.182L42.456,26.915L43.121,26.969L45.882,27.728L46.648,28.328L47.542,30.081L47.657,29.564L47.699,27.909L47.905,26.952L49.159,26.259L48.394,25.662L45.257,24.351L45.087,25.022L45.032,26.03L42.87,26.199L41.388,25.867L40.113,25.262L39.199,24.435L37.984,21.833L37.487,19.476L37.894,18.459L38.936,17.575L39.998,17.126L42.212,17.113L44.812,17.955L47.408,19.816ZM704.368,0L704.754,0.757L705.323,2.236L705.482,4.031L705.445,7.077L705.981,9.254L707.02,12.522L707.268,14.834L706.621,16.207L706.262,17.448L706.175,19.658L706.319,20.487L707.051,21.987L708.024,22.753L709.521,23.509L711.009,24.795L713.953,28.023L716.003,29.736L718.537,32.342L719.22,33.77L718.835,34.862L718.236,35.665L716.753,36.872L716.153,37.675L716.335,37.806L718.671,36.895L720.068,36.683L721.39,37.219L722.63,38.465L724.499,39.349L726.901,39.927L729.493,41.204L734.072,44.437L734.92,45.219L736.302,47.09L738.28,50.079L739.372,52.088L739.617,53.07L739.08,54.203L736.873,56.522L734.87,60.239L735.678,59.921L737.096,58.25L739.51,55.026L740.975,54.205L742.542,54.187L745.047,54.517L747.296,55.182L749.41,56.243L752.84,59.47L756.34,61.896L758.447,64.149L757.638,62.62L756.197,60.933L752.908,58.465L751.443,57.153L751.029,56.452L750.756,55.641L750.668,54.132L750.748,51.848L751.111,50.166L751.765,49.126L752.091,48.07L752.2,47.017L752.461,46.181L754.472,44.406L755.118,44.396L755.921,45.92L756.505,46.128L757.644,46.138L758.649,46.546L759.55,47.224L760.261,48.024L760.756,48.828L762.042,51.572L762.795,52.817L762.556,51.174L762.582,48.482L762.779,47.367L763.851,45.527L763.604,44.878L762.849,44.131L759.141,40.916L758.889,39.98L759.546,39.264L759.896,38.118L759.819,36.486L760.202,35.251L761.664,33.291L762.679,30.52L763.142,28.69L763.56,27.653L764.182,27.312L763.117,26.843L762.819,26.455L762.335,24.461L761.469,22.428L760.646,21.578L758.47,19.867L758.031,19.304L757.224,17.014L757.175,15.793L757.413,14.676L756.958,13.789L754.965,12.369L754.034,10.969L752.557,7.475L750.929,2.994L749.617,0L1000,0L1000,2.052L999.462,2.179L997.858,2.829L996.293,3.724L993.652,4.698L992.647,6.412L987.681,7.991L985.215,7.785L983.414,8.23L981.286,9.323L979.411,10.923L974.344,11.92L969.563,14.568L964.971,15.735L963.57,15.696L957.063,19.625L954.09,19.85L952.399,22.8L950.616,22.971L948.943,23.92L948.18,23.72L947.117,24.447L946.749,25.83L945.769,26.31L944.791,28.902L942.479,31.489L941.306,41.645L942.112,45.115L941.295,47.945L940,48.74L938.87,49.175L932.111,53.386L929.267,55.811L930.559,56.537L929.735,57.718L928.112,58.607L926.55,60.205L925.652,61.708L925.576,63.409L922.608,67.141L920.037,74.297L919.277,79.183L917.647,83.059L916.208,84.809L914.936,85.43L913.477,85.465L910.843,84.756L909.192,85.105L904.513,84.385L894.44,85.261L896.108,85.565L897.719,86.44L900.326,85.982L902.836,85.206L908.891,86.014L911.726,86.063L913.564,86.296L915.434,87.546L915.513,91.128L915.347,94.143L914.711,96.621L911.806,103.416L910.146,105.908L908.206,113.502L905.091,117.758L903.462,120.268L902.036,123.87L897.25,127.699L895.386,128.893L893.419,129.129L891.688,131.604L889.302,133.496L888.951,135.393L883.749,141.756L881.413,143.058L879.574,144.856L879.527,147.047L877.981,148.845L877.676,149.911L876.844,153.215L874.895,157.763L871.344,159.374L870.336,161.012L869.382,163.529L867.563,165.552L863.027,166.037L864.278,166.642L868.545,166.951L869.486,168.872L867.686,169.866L864.316,173.659L859.953,179.786L859.117,180.088L857.611,180.393L855.577,181.726L853.134,184.094L850.317,187.912L845.618,195.798L845.382,196.579L844.754,198.008L842.745,199.818L840.991,201.69L840.753,203.233L839.921,204.114L837.312,208.604L836.058,212.128L835.019,215.81L833.881,219.896L829.722,220.913L826.599,221.594L821.191,222.831L816.593,223.824L811.059,225.051L807.103,225.873L802.834,226.961L800.976,228.371L798.71,230.2L796.227,232.197L798.308,235.051L798.986,236.216L799.708,240.242L800.099,240.624L800.515,241.127L800.796,242.165L801.136,242.6L801.749,242.85L802.38,243.182L802.925,243.699L803.173,244.28L802.977,245.419L801.671,247.214L799.661,248.944L795.578,252.152L790.883,255.807L786.773,259.033L783.561,261.48L776.554,264.439L770.977,266.759L766.964,268.431L763.537,271.623L759.713,275.128L756.531,278.088L752.953,281.361L749.522,284.471L745.234,285.202L741.925,283.871L738.861,282.453L736.417,279.421L735.653,275.526L735.901,272.847L736.321,271.605L737.353,270.681L739.448,269.035L741.084,266.163L742.516,264.329L743.884,262.504L744.39,259.652L744.474,252.933L744.43,251.599L745.333,246.834L746.386,241.581L746.88,239.148L744.841,233.43L743.345,229.043L741.976,225.01L740.401,220.47L739.026,216.357L737.69,212.447L736.357,208.537L735.049,204.749L734.098,201.987L732.951,198.758L729.198,196.972L726.378,195.733L721.724,193.748L717.903,192.075L714.463,190.501L715.756,186.047L715.473,185.384L714.598,184.691L712.946,183.538L712.068,183.553L710.63,184.112L708.414,185.332L707.338,185.207L706.253,183.877L705.05,182.149L704.483,180.739L704.076,178.848L703.302,177.22L703.502,176.234L703.49,175.779L703.403,175.211L702.949,174.906L702.241,174.848L700.074,175.923L699.061,176.158L698.495,176.658L697.653,177.656L696.695,177.881L694.749,176.134L692.663,174.197L691.481,171.258L690.234,168.245L686.908,166.815L683.589,165.378L680.277,163.934L676.973,162.482L673.731,161.016L670.441,159.55L667.157,158.077L663.881,156.597L662.731,156.082L659.775,154.802L655.619,152.962L650.82,150.858L646.093,148.732L641.919,146.861L639.003,145.54L637.928,145L635.08,143.706L631.489,142.239L627.969,143.552L623.821,146.521L621.397,148.24L619.599,149.484L618.32,150.264L615.519,151.105L614.056,151.159L610.495,151.115L608.575,151.738L607.136,151.414L606.28,150.01L605.359,149.146L601.874,149.895L597.372,149.939L595.259,150.272L594.372,149.727L593.573,148.149L592.383,148.037L590.456,148.554L587.872,150.84L585.321,152.135L583.304,152.279L581.21,151.319L577.816,149.379L575.363,147.083L572.684,146.396L570.744,146.723L570.038,147.996L569.032,148.058L568.18,146.021L567.468,144.426L566.145,143.81L563.77,142.352L562.11,141.629L559.549,140.708L558.707,140.59L557.086,140.513L555.526,140.513L553.651,140.896L552.437,142.265L550.907,142.913L548.694,143.305L547.164,142.803L546.38,141.49L543.157,140.406L537.614,139.572L534.36,138.797L533.501,138.093L533.027,137.293L532.871,136.033L532.87,135.992L531.315,132.781L530.668,130.07L530.281,126.82L530.298,125.719L530.012,125.402L528.998,124.703L525.687,124.362L525.753,128.273L525.851,133.207L522.203,133.315L515.679,133.486L509.098,133.627L502.573,133.736L496.047,133.815L489.465,133.865L482.939,133.883L476.357,133.871L469.831,133.828L463.25,133.755L456.724,133.651L450.199,133.518L443.619,133.352L437.096,133.158L430.518,132.931L423.997,132.675L417.421,132.387L410.903,132.071L404.33,131.721L397.815,131.344L391.301,130.937L384.734,130.496L378.225,130.028L371.662,129.525L365.157,128.996L358.6,128.432L352.1,127.843L345.603,127.223L339.054,126.568L332.563,125.888L326.02,125.172L319.536,124.431L313.001,123.653L306.523,122.852L299.995,122.014L293.526,121.153L287.061,120.261L280.545,119.332L274.088,118.38L267.582,117.39L261.134,116.378L254.637,115.327L248.199,114.255L241.712,113.143L235.285,112.011L228.862,110.849L222.391,109.647L215.98,108.425L209.521,107.163L203.121,105.882L196.674,104.559L190.287,103.218L183.906,101.847L177.478,100.435L171.11,99.004L164.695,97.532L158.341,96.043L151.94,94.51L145.6,92.962L139.214,91.37L132.888,89.762L126.571,88.125L120.207,86.444L113.905,84.748L107.558,83.008L106.065,82.594L105.709,81.606L104.557,80.184L104.025,80.035L103.352,80.185L102.847,80.552L102.23,81.522L101.929,81.777L101.727,81.678L101.644,81.358L101.627,79.785L101.911,79.187L102.61,78.537L102.634,78.247L101.505,78.183L101.136,77.867L101.034,77.415L101.553,75.782L101.225,74.715L102.025,74.518L103.808,74.682L105.621,75.148L106.295,74.575L107.296,73.035L105.587,74.25L104.801,74.199L102.638,72.955L101.081,72.599L100.959,72.226L101.164,71.903L101.582,71.64L102.137,70.485L103.449,67.26L104.267,66.18L104.602,65.598L104.541,65.412L101.885,67.155L101.516,67.854L101.549,68.541L100.97,69.773L99.908,69.894L99.437,69.548L98.067,70.343L97.717,70.369L93.482,67.028L93.023,66.64L92.495,65.511L91.742,63.595L91.764,62.159L92.556,61.204L93.135,60.78L93.659,60.933L94.07,61.476L94.639,63.633L94.73,64.889L95.933,65.068L98.19,64.151L98.768,63.725L96.771,63.743L95.994,63.476L95.376,62.661L94.877,61.245L94.844,59.795L96.06,55.618L96.548,54.913L97.616,54.547L98.473,53.737L98.545,53.293L98.273,52.283L97.673,51.432L96.994,50.854L96.752,50.911L97.428,53.053L97.224,53.756L95.345,55.155L94.988,55.602L94.475,57.358L94.216,57.663L92.969,57.849L91.364,58.862L89.185,58.729L87.347,58.015L86.498,57.041L84.316,52.738L83.592,50.992L83.944,49.825L83.022,45.005L83.293,44.112L82.958,42.61L82.189,42.164L82.361,40.859L84.866,38.738L86.63,36.815L86.944,36.147L87.221,35.046L87.692,32.564L88.265,31.594L86.765,32.664L86.254,33.609L86.193,34.734L85.686,35.851L84.562,37.331L82.948,38.748L80.533,38.9L76.863,37.26L76.523,36.9L76.446,36.239L77.033,33.619L76.68,33.849L75.848,35.076L74.873,36.939L74.277,37.221L73.492,37.019L72.971,36.516L72.714,35.712L71.761,35.328L69.842,35.32L69.041,34.811L68.065,34.502L66.194,33.269L63.831,32.342L63.352,31.72L63.676,30.887L64.223,30.594L66.857,31.011L69.6,30.905L72.156,31.202L72.187,30.745L71.16,30.251L65.309,29.495L63.619,28.782L63.361,28.528L63.633,27.509L64.596,26.797L65.954,26.255L66.483,25.659L65.957,25.192L64.874,25.057L64.589,24.369L65.782,22.414L66.006,20.147L64.699,21.937L63.37,22.742L58.574,21.733L57.621,22.06L57.01,21.859L54.416,19.809L53.363,18.734L52.515,17.385L51.119,14.486L49.927,12.506L50.741,9.922L51.648,8.393L53.034,6.77L57.331,3.779L58.627,3.403L59.619,3.434L64.1,4.529L67.527,5.095L68.217,5.023L63.536,3.197L59.211,1.981L57.553,2.109L54.84,4.054L54.029,4.974L53.256,5.609L52.904,5.491L52.392,5.02L52.307,4.608L52.289,3.665L51.775,2.043L51.842,0.361L51.921,0L704.368,0ZM1000,154.305L999.853,152.028L1000,151.589L1000,154.305ZM1000,147.715L998.576,150.781L998.63,149.884L998.852,148.926L999.448,147.261L1000,146.423L1000,147.715ZM1000,127.756L996.171,131.747L995.135,132.169L991.985,130.907L992.31,129.738L992.437,128.202L991.972,128.809L991.783,129.491L990.741,130.921L992.533,132.241L992.164,133.12L990.814,134.573L989.766,136.352L988.687,137.704L987.189,137.017L984.678,139.444L982.247,140.701L981.457,140.238L980.906,139.21L979.922,139.251L978.365,140.149L977.55,139.781L977.55,139.781L976.732,139.762L975.984,139.762L975.361,139.762L975.136,140.189L975.007,140.714L974.727,141.161L973.8,141.004L973.015,140.361L971.885,139.795L971.336,139.288L971.246,138.491L971.391,137.656L971.261,136.743L970.535,135.906L969.959,135.496L969.466,134.969L969.361,134.309L969.765,133.864L970.128,133.302L970.023,132.467L969.395,131.727L968.459,131.703L967.836,132.05L966.775,132.199L965.661,132.017L964.784,131.623L964.222,131.424L963.836,131.557L963.287,131.397L962.811,130.908L962.478,129.935L962.443,129.295L962.503,128.752L962.358,128.15L962.115,127.798L961.953,127.506L961.929,127.079L961.828,126.245L961.352,125.756L960.604,123.752L959.269,120.038L958.228,117.18L957.003,113.605L956.043,110.982L954.724,107.311L953.54,103.855L952.301,100.594L949.762,99.338L946.517,97.756L943.878,96.875L942.681,97.061L942.06,97.53L942.012,98.281L940.669,99.466L938.108,101.14L936.104,103.057L935.184,103.36L934.362,103.415L933.196,103.15L932.279,102.545L931.537,101.192L931.102,99.135L929.506,99.183L927.976,99.25L927.502,100.912L927.016,102.362L926.145,105.401L924.899,109.721L924.219,112.093L922.957,116.241L921.834,119.913L922.384,123.183L922.871,126.26L921.812,129.048L921.403,131.416L921.673,133.829L921.948,136.069L922.432,137.813L923.004,138.668L923.126,139.449L922.84,140.486L922.137,142.342L922.367,143.865L921.918,144.78L920.348,146.816L919.314,149.417L919.621,150.614L920.148,151.529L920.398,152.141L920.194,152.677L919.51,152.845L918.829,153.226L918.534,154.263L918.919,155.523L918.747,156.566L918.301,156.918L917.647,156.385L916.853,155.594L916.2,155.664L915.448,156.624L914.577,158.006L913.532,158.408L911.417,158.313L910.556,160.764L910.339,165.599L903.785,167.578L897.268,169.472L890.685,171.351L884.105,173.241L877.563,175.045L870.955,176.835L864.396,178.579L860.696,179.592L859.953,179.786L862.008,178.312L865.786,173.696L868.935,171.577L872.517,166.816L875.557,165.262L875.962,164.298L875.675,161.261L875.729,160.137L876.395,156.838L877.579,153.907L878.111,150.174L880.14,147.302L883.598,144.405L886.166,139.486L887.824,137.728L889.514,136.299L889.887,134.481L890.785,133.236L893.459,130.487L896.837,128.935L899.916,126.392L902.418,124.741L903.638,122.83L905.825,121.352L911.792,115.056L913.159,112.527L914.558,107.837L916.155,105.144L916.247,102.794L918.409,98.369L920.298,92.778L920.866,89.027L922.76,86.479L925.83,79.799L927.662,76.957L928.646,76.374L930.848,73.617L932.025,71.156L934.237,68.301L938.557,64.247L942.377,59.827L947.965,55.158L954.199,48.926L959.579,44.822L963.726,43.007L968.555,40.185L970.404,39.628L979.023,38.131L983.563,38.582L989.501,40.93L990.571,41.698L991.249,43.142L988.641,43.318L986.556,44.075L988.328,44.357L991.718,45.893L992.755,49.039L992.477,52.344L988.883,55.298L988.261,56.804L988.107,58.919L987.531,59.925L985.804,61.541L985.135,63.105L982.58,66.205L981.191,66.986L979.348,67.192L974.573,66.907L971.478,66.125L970.551,67.509L969.846,68.854L967.308,69.427L966.352,70.25L964.39,70.435L961.408,73.935L962.549,73.789L965.07,71.495L966.129,71.288L968.919,72.063L974.837,71.866L976.621,72.475L979.29,75.637L980.351,75.9L982.064,74.829L983.457,72.257L984.79,70.666L987.827,68.65L987.589,70.096L990.079,69.024L993.222,69.669L992.709,71.179L992.297,73.92L993.132,78.687L991.654,82.662L989.331,86.861L990.46,87.271L991.634,87.313L993.508,85.645L995.017,85.119L996.89,85.068L997.214,87.534L997.207,89.292L998.134,90.608L1000,92.81L1000,127.756ZM1000,27.035L995.334,26.613L993.993,25.61L992.637,24.263L990.628,23.347L988.624,22.733L979.341,22.057L978.184,21.02L979.424,19.542L981.106,18.457L982.694,17.885L988.532,17.264L995.631,15.941L998.861,15.787L1000,15.826L1000,27.035ZM729.528,22.901L728.62,23.401L725.545,23.329L724.241,23.124L720.325,22.178L713.019,21.017L710.462,20.209L709.801,19.431L710.735,17.313L711.261,16.447L711.937,15.838L719.019,13.659L721.88,13.576L725.889,16.776L728.311,19.009L729.464,20.912L729.66,21.936ZM59.965,60.039L59.744,62.191L58.071,61.275L57.566,60.687L57.875,59.716L58.474,58.923L59.737,59.667ZM89.474,64.711L89.547,65.242L86.807,62.523L85.703,61.049L85.4,60.152L85.213,59.629L83.864,58.037L83.755,57.452L84.237,57.172L85.266,57.734L86.854,59.099L88.126,60.961ZM53.826,51.871L53.228,51.763L52.379,51.188L51.592,50.247L50.329,47.95L50.3,47.513L50.569,47.216L51.125,47.098L51.42,46.724L51.409,45.351L53.061,45.035L54.143,46.114L54.462,47.073L54.686,48.685L54.484,50.373L54.185,51.474ZM78.29,47.512L77.778,48.63L77.479,46.456L77.283,41.934L77.777,41.067L78.815,39.901L79.406,39.997L80.145,40.903L80.628,42.282L80.652,42.756L80.814,44.079L80.753,45.207L79.792,46.314ZM49.98,0L50.185,1.461L50.293,1.967L49.696,3.725L49.299,4.401L49.299,4.401L48.981,4.677L48.429,4.489L47.655,3.799L47.277,2.774L47.337,0L49.98,0ZM94.948,85.271L94.192,85.692L93.841,85.506L93.686,85.037L93.875,80.761L94.267,81L95.197,82.583L94.795,82.977L95.408,84.468L95.386,85.353ZM994.708,65.025L994.955,66.771L994.164,68.652L993.56,68.97L993.253,68.956L993.234,67.956L992.65,66.426L993.615,65.794L994.042,65.806ZM994.566,63.239L993.323,65.029L993.4,63.028L993.554,62.487L993.744,62.195L994.065,62.247ZM997.71,154.691L997.218,155.789L997.163,154.932L997.401,152.61L997.92,152.115ZM987.033,148.708L985.334,150.666L985.1,147.339L985.439,146.17L986.386,146.183L986.923,148.047ZM875.173,164.301L874.049,165.077L871.894,165.194L869.736,166.417L869.114,166.585L870.36,164.458L872.667,162.681L874.393,158.797L875.102,158.517L875.079,162.406L875.268,163.763ZM872.403,162.156L870.613,163.153L869.939,163.123L871.423,160.333L873.648,159.172ZM905.189,121.031L903.878,121.643L903.969,120.757L905.456,118.762L906.584,117.56L907.404,117.309L906.619,119.437ZM738.253,8.089L738.336,8.766L737.405,8.829L736.874,8.527L736.354,8.018L736.16,7.568L736.426,7.066L737.538,7.13ZM752.326,37.149L751.741,37.434L750.369,37.551L749.115,37.191L748.301,36.616L752.31,33.697L753.284,33.742L753.366,34.136L752.918,35.34L752.911,36.082L752.716,36.698ZM96.758,82.561L96.467,82.775L94.637,80.512L93.704,77.952L93.428,76.515L95.544,80.56L96.797,82.021ZM80.842,49.947L80.418,50.031L80.835,47.355L81.574,46.603L81.82,46.168L81.921,45.647L82.345,47.049L82.421,47.921L82.207,49.002L82.113,49.313Z"/>
</g>
<g class="map-markers"></g>
</svg>
